<svg xmlns="http://www.w3.org/2000/svg" width="283.718" height="305.644" viewBox="0 0 283.718 305.644">
  <g id="Lesson-amico" transform="translate(-25.954 -41.535)">
    <g id="freepik--Floor--inject-169" transform="translate(25.954 168.536)">
      <path id="freepik--floor--inject-169-2" data-name="freepik--floor--inject-169" d="M67.494,255.554c-55.389,34.884-55.389,91.437.006,126.322s145.2,34.878,200.593,0,55.389-91.437,0-126.322S122.89,220.677,67.494,255.554Z" transform="translate(-25.954 -229.394)" fill="#fafafa"/>
    </g>
    <g id="freepik--Shadows--inject-169" transform="translate(31.795 216.239)">
      <ellipse id="freepik--shadow--inject-169" cx="42.436" cy="26.723" rx="42.436" ry="26.723" transform="translate(0 46.3)" fill="#e0e0e0"/>
      <path id="freepik--shadow--inject-169-2" data-name="freepik--shadow--inject-169" d="M152.237,385.627l40.511-25.514L139.581,326.63,99.07,352.144Z" transform="translate(-37.622 -323.342)" fill="#e0e0e0"/>
      <path id="freepik--shadow--inject-169-3" data-name="freepik--shadow--inject-169" d="M219.668,376.193l82.3,51.905a1.12,1.12,0,0,0,1.083,0l51.856-32.675a.375.375,0,0,0,0-.69l-82.3-51.905a1.119,1.119,0,0,0-1.083,0l-51.856,32.682A.37.37,0,0,0,219.668,376.193Z" transform="translate(-102.788 -312.16)" fill="#e0e0e0"/>
      <path id="freepik--shadow--inject-169-4" data-name="freepik--shadow--inject-169" d="M355.892,391.794l53.319-32.958a1.318,1.318,0,0,0,0-2.431L357.43,323.3a3.947,3.947,0,0,0-3.862-.035l-53.325,32.992a1.32,1.32,0,0,0,0,2.431l51.78,33.144A3.964,3.964,0,0,0,355.892,391.794Z" transform="translate(-132.14 -305.997)" fill="#e0e0e0"/>
    </g>
    <g id="freepik--Books--inject-169" transform="translate(100.65 146.826)">
      <g id="freepik--Book--inject-169" transform="translate(20.119)">
        <path id="Path_64" data-name="Path 64" d="M230.851,258.63v1.933s-.684-.691-.722-1.167S230.851,258.63,230.851,258.63Z" transform="translate(-174.684 -232.884)"/>
        <path id="Path_65" data-name="Path 65" d="M226.588,258a2.186,2.186,0,0,0,.163,1.619,1.876,1.876,0,0,0,1.2.963c1.931.69,3.165,0,3.431.594s-9.167,6.491-9.167,6.491l1.8-8.535Z" transform="translate(-171.782 -232.689)" fill="#689bc8"/>
        <path id="Path_66" data-name="Path 66" d="M226.588,258a2.186,2.186,0,0,0,.163,1.619,1.876,1.876,0,0,0,1.2.963c1.931.69,3.165,0,3.431.594s-9.167,6.491-9.167,6.491l1.8-8.535Z" transform="translate(-171.782 -232.689)" opacity="0.3"/>
        <path id="Path_67" data-name="Path 67" d="M199.414,326.87v.117l-.95-.594L157.89,300.844l3.571-76.722c0-1.229.633-1.844,1.386-1.381l1.38.877L202.168,247.5l-.038.366Z" transform="translate(-148.178 -221.729)" fill="#689bc8"/>
        <path id="Path_68" data-name="Path 68" d="M199.414,326.87v.117l-.95-.594L157.89,300.844l3.571-76.722c0-1.229.633-1.844,1.386-1.381l1.38.877L202.168,247.5l-.038.366Z" transform="translate(-148.178 -221.729)" opacity="0.2"/>
        <path id="Path_69" data-name="Path 69" d="M213.618,271.479l-1.988-2.444,10.186-6.415c1.538,1.264,2.716,1.94,4.09,1.305Z" transform="translate(-167.896 -234.119)" fill="#455a64"/>
        <path id="Path_70" data-name="Path 70" d="M197.95,249.977l-37.574-23.664a2.433,2.433,0,0,0-2.361,0L148,232.638l38.112,23.788a3.242,3.242,0,0,1,2.767.518c1.121.994,1.057-.262,1.057-.262l8.566-5.393C197.767,250.267,197.95,249.977,197.95,249.977Z" transform="translate(-144.55 -222.787)" fill="#f5f5f5"/>
        <path id="Path_71" data-name="Path 71" d="M210.921,273.4c-.386-.242-.551-.525-.367-.642l.317-.2c.355-.221,0-.794-.741-1.284a2.426,2.426,0,0,0-2.032-.47l-.317.2a2.394,2.394,0,0,1-1.5-.532l.234,76.854.95.594a.789.789,0,0,0,.551-.055l.323-.2c.348-.221,1.266,0,2.02.47s1.1,1.056.747,1.284l-.323.2c-.177.111,0,.394.374.642Z" transform="translate(-165.933 -236.548)" fill="#689bc8"/>
        <path id="Path_72" data-name="Path 72" d="M210.921,273.4c-.386-.242-.551-.525-.367-.642l.317-.2c.355-.221,0-.794-.741-1.284a2.426,2.426,0,0,0-2.032-.47l-.317.2a2.394,2.394,0,0,1-1.5-.532l.234,76.854.95.594a.789.789,0,0,0,.551-.055l.323-.2c.348-.221,1.266,0,2.02.47s1.1,1.056.747,1.284l-.323.2c-.177.111,0,.394.374.642Z" transform="translate(-165.933 -236.548)" opacity="0.4"/>
        <path id="Path_73" data-name="Path 73" d="M184.08,336.725v.117l-.95-.594L142.55,310.7V236.222c0-1.236.633-1.844,1.38-1.381l1.386.877,38.758,23.374Z" transform="translate(-142.55 -225.473)" fill="#689bc8"/>
        <path id="Path_74" data-name="Path 74" d="M184.08,336.725v.117l-.95-.594L142.55,310.7V236.222c0-1.236.633-1.844,1.38-1.381l1.386.877,38.758,23.374Z" transform="translate(-142.55 -225.473)" opacity="0.2"/>
        <path id="Path_75" data-name="Path 75" d="M212.91,350.916V274l2.532,1.112v76.66a2.2,2.2,0,0,1-1.393-.152Z" transform="translate(-168.366 -237.641)" fill="#689bc8"/>
        <path id="Path_76" data-name="Path 76" d="M212.91,350.916V274l2.532,1.112v76.66a2.2,2.2,0,0,1-1.393-.152Z" transform="translate(-168.366 -237.641)" opacity="0.2"/>
        <path id="Path_77" data-name="Path 77" d="M230.469,339.445a1.121,1.121,0,0,1,0,.145.263.263,0,0,1,0,.1.825.825,0,0,1-.082.207.294.294,0,0,1-.044.1,1.87,1.87,0,0,1-.215.338c-.082.11-.184.221-.285.331a4.544,4.544,0,0,1-.355.331,1.552,1.552,0,0,1-.228.186l-.184.145c-.139.1-.291.207-.449.311l-8.743,5.524a7.8,7.8,0,0,1-2.944,1.139V271.6l13.567-8.866v76.715Z" transform="translate(-169.845 -234.153)" fill="#689bc8"/>
        <path id="Path_78" data-name="Path 78" d="M216.89,287.165v9.246a33.918,33.918,0,0,0,13.567-8.542v-9.26A34.093,34.093,0,0,1,216.89,287.165Z" transform="translate(-169.826 -239.067)" fill="#689bc8"/>
        <path id="Path_79" data-name="Path 79" d="M216.89,287.165v9.246a33.918,33.918,0,0,0,13.567-8.542v-9.26A34.093,34.093,0,0,1,216.89,287.165Z" transform="translate(-169.826 -239.067)" fill="#455a64"/>
        <path id="Path_80" data-name="Path 80" d="M216.89,305.512v3.453a34.069,34.069,0,0,0,13.567-8.542V296.97A34.069,34.069,0,0,1,216.89,305.512Z" transform="translate(-169.826 -244.75)" fill="#689bc8"/>
        <path id="Path_81" data-name="Path 81" d="M216.89,305.512v3.453a34.069,34.069,0,0,0,13.567-8.542V296.97A34.069,34.069,0,0,1,216.89,305.512Z" transform="translate(-169.826 -244.75)" fill="#455a64"/>
        <path id="Path_82" data-name="Path 82" d="M192.868,261.391l-.684-1.319a5.837,5.837,0,0,1-2.906,1,2.146,2.146,0,0,0-.241-1.257,3.675,3.675,0,0,0-1.311-1.312,4.852,4.852,0,0,0-1.988-.732h-.146a2.081,2.081,0,0,0-1.216.249l-35.985-22.649-1.228-.766-1.557-.981a.76.76,0,0,0-.848-.069l-1.38.87a.783.783,0,0,1,.867.055h0l4.128,2.6L183.195,259a2.431,2.431,0,0,0,1.5.539l.323-.2a1.023,1.023,0,0,1,.715-.055,3.728,3.728,0,0,1,1.31.518c.766.483,1.1,1.063.741,1.284l-.317.2c-.184.117,0,.4.367.642l.69.428C189.291,262.834,191.254,262.412,192.868,261.391Z" transform="translate(-142.855 -225.093)" fill="#689bc8"/>
        <path id="Path_83" data-name="Path 83" d="M192.868,261.391l-.684-1.319a5.837,5.837,0,0,1-2.906,1,2.146,2.146,0,0,0-.241-1.257,3.675,3.675,0,0,0-1.311-1.312,4.852,4.852,0,0,0-1.988-.732h-.146a2.081,2.081,0,0,0-1.216.249l-35.985-22.649-1.228-.766-1.557-.981a.76.76,0,0,0-.848-.069l-1.38.87a.783.783,0,0,1,.867.055h0l4.128,2.6L183.195,259a2.431,2.431,0,0,0,1.5.539l.323-.2a1.023,1.023,0,0,1,.715-.055,3.728,3.728,0,0,1,1.31.518c.766.483,1.1,1.063.741,1.284l-.317.2c-.184.117,0,.4.367.642l.69.428C189.291,262.834,191.254,262.412,192.868,261.391Z" transform="translate(-142.855 -225.093)" opacity="0.3"/>
        <path id="Path_84" data-name="Path 84" d="M199.871,256.322l8.743-5.524.361-.242.279-.221h0a3.716,3.716,0,0,1-3.248-.546,3.583,3.583,0,0,1-1.266-1.284,2.159,2.159,0,0,1-.215-1.381l-.12-.076-.247-.145-34.82-21.917-1.994-1.257-.576-.359-1.684-1.063a.734.734,0,0,0-.753,0l.374-.242,1.007-.628a.7.7,0,0,1,.7,0h0l.633.387.393.242c.228.152.456.29.671.421l.411.262.3.186.513.318,27.641,17.415,8.825,5.524c.633.394,1,.8.855.939l-.051.041-.31.193c-.386.242-.076.829.69,1.312a1.729,1.729,0,0,0,1.747.269l.38-.242a.63.63,0,0,1,.551-.09l.2.131.437.276.538.338a.613.613,0,0,1,.291.69.18.18,0,0,1,0,.1.808.808,0,0,1-.076.207h0a.5.5,0,0,1-.044.1,1.767,1.767,0,0,1-.215.338,4.3,4.3,0,0,1-.279.331c-.114.11-.228.221-.361.331a1.5,1.5,0,0,1-.222.186l-.184.145c-.146.1-.291.207-.45.3l-8.743,5.524Z" transform="translate(-150.541 -221.344)" fill="#689bc8"/>
        <path id="Path_85" data-name="Path 85" d="M199.871,256.322l8.743-5.524.361-.242.279-.221h0a3.716,3.716,0,0,1-3.248-.546,3.583,3.583,0,0,1-1.266-1.284,2.159,2.159,0,0,1-.215-1.381l-.12-.076-.247-.145-34.82-21.917-1.994-1.257-.576-.359-1.684-1.063a.734.734,0,0,0-.753,0l.374-.242,1.007-.628a.7.7,0,0,1,.7,0h0l.633.387.393.242c.228.152.456.29.671.421l.411.262.3.186.513.318,27.641,17.415,8.825,5.524c.633.394,1,.8.855.939l-.051.041-.31.193c-.386.242-.076.829.69,1.312a1.729,1.729,0,0,0,1.747.269l.38-.242a.63.63,0,0,1,.551-.09l.2.131.437.276.538.338a.613.613,0,0,1,.291.69.18.18,0,0,1,0,.1.808.808,0,0,1-.076.207h0a.5.5,0,0,1-.044.1,1.767,1.767,0,0,1-.215.338,4.3,4.3,0,0,1-.279.331c-.114.11-.228.221-.361.331a1.5,1.5,0,0,1-.222.186l-.184.145c-.146.1-.291.207-.45.3l-8.743,5.524Z" transform="translate(-150.541 -221.344)" opacity="0.3"/>
      </g>
      <g id="freepik--book--inject-169-2" data-name="freepik--book--inject-169" transform="translate(0 13.248)">
        <path id="Path_86" data-name="Path 86" d="M199.071,277.78v1.933s-.684-.691-.722-1.167S199.071,277.78,199.071,277.78Z" transform="translate(-142.904 -252.059)"/>
        <path id="Path_87" data-name="Path 87" d="M194.808,277.1a2.186,2.186,0,0,0,.163,1.619,1.876,1.876,0,0,0,1.2.963c1.931.69,3.165,0,3.431.594s-9.167,6.539-9.167,6.539l1.8-8.542Z" transform="translate(-140.002 -251.848)" fill="#689bc8"/>
        <path id="Path_88" data-name="Path 88" d="M194.808,277.1a2.186,2.186,0,0,0,.163,1.619,1.876,1.876,0,0,0,1.2.963c1.931.69,3.165,0,3.431.594s-9.167,6.539-9.167,6.539l1.8-8.542Z" transform="translate(-140.002 -251.848)" opacity="0.3"/>
        <path id="Path_89" data-name="Path 89" d="M167.634,346.025v.124l-.95-.594L126.11,320.006l3.571-76.695c0-1.236.633-1.844,1.386-1.381l1.38.877,37.941,23.878-.038.366Z" transform="translate(-116.398 -240.916)" fill="#689bc8"/>
        <path id="Path_90" data-name="Path 90" d="M167.634,346.025v.124l-.95-.594L126.11,320.006l3.571-76.695c0-1.236.633-1.844,1.386-1.381l1.38.877,37.941,23.878-.038.366Z" transform="translate(-116.398 -240.916)" opacity="0.2"/>
        <path id="Path_91" data-name="Path 91" d="M181.848,290.629l-1.988-2.444,10.186-6.415c1.538,1.264,2.716,1.94,4.09,1.305Z" transform="translate(-136.12 -253.293)" fill="#455a64"/>
        <path id="Path_92" data-name="Path 92" d="M166.156,269.127l-37.574-23.664a2.433,2.433,0,0,0-2.361,0l-10.041,6.325,38.105,23.788a3.242,3.242,0,0,1,2.767.518c1.121.987,1.057-.262,1.057-.262l8.566-5.393C165.972,269.417,166.156,269.127,166.156,269.127Z" transform="translate(-112.755 -241.962)" fill="#f5f5f5"/>
        <path id="Path_93" data-name="Path 93" d="M179.141,292.548c-.386-.242-.551-.525-.367-.642l.317-.2c.355-.221,0-.794-.741-1.284a2.46,2.46,0,0,0-2.032-.476l-.317.207a2.393,2.393,0,0,1-1.5-.532l.234,76.854.95.594a.79.79,0,0,0,.551-.055l.323-.2c.355-.221,1.266,0,2.026.47s1.1,1.056.741,1.277l-.323.2c-.177.117,0,.4.374.642Z" transform="translate(-134.153 -255.723)" fill="#689bc8"/>
        <path id="Path_94" data-name="Path 94" d="M179.141,292.548c-.386-.242-.551-.525-.367-.642l.317-.2c.355-.221,0-.794-.741-1.284a2.46,2.46,0,0,0-2.032-.476l-.317.207a2.393,2.393,0,0,1-1.5-.532l.234,76.854.95.594a.79.79,0,0,0,.551-.055l.323-.2c.355-.221,1.266,0,2.026.47s1.1,1.056.741,1.277l-.323.2c-.177.117,0,.4.374.642Z" transform="translate(-134.153 -255.723)" fill="#fff" opacity="0.25"/>
        <path id="Path_95" data-name="Path 95" d="M152.3,355.874v.117l-.95-.594L110.77,329.848V255.363c0-1.229.633-1.837,1.38-1.381l1.386.87,38.758,23.381Z" transform="translate(-110.77 -244.647)" fill="#689bc8"/>
        <path id="Path_96" data-name="Path 96" d="M152.3,355.874v.117l-.95-.594L110.77,329.848V255.363c0-1.229.633-1.837,1.38-1.381l1.386.87,38.758,23.381Z" transform="translate(-110.77 -244.647)" fill="#fff" opacity="0.4"/>
        <path id="Path_97" data-name="Path 97" d="M181.13,370.046V293.11l2.532,1.1V370.91a2.2,2.2,0,0,1-1.393-.152Z" transform="translate(-136.586 -256.803)" fill="#689bc8"/>
        <path id="Path_98" data-name="Path 98" d="M181.13,370.046V293.11l2.532,1.1V370.91a2.2,2.2,0,0,1-1.393-.152Z" transform="translate(-136.586 -256.803)" fill="#fff" opacity="0.4"/>
        <path id="Path_99" data-name="Path 99" d="M198.689,358.606a1.122,1.122,0,0,1,0,.145.263.263,0,0,1,0,.1.942.942,0,0,1-.082.207.3.3,0,0,1-.044.1,2.145,2.145,0,0,1-.215.338c-.082.11-.184.221-.285.331a4.541,4.541,0,0,1-.355.331,1.552,1.552,0,0,1-.228.186l-.184.145c-.139.1-.291.207-.449.3l-8.743,5.524a7.8,7.8,0,0,1-2.944,1.146V290.736l13.567-8.866v76.736Z" transform="translate(-138.065 -253.324)" fill="#689bc8"/>
        <g id="Group_124" data-name="Group 124" transform="translate(47.095 28.546)" opacity="0.7">
          <path id="Path_100" data-name="Path 100" d="M198.689,358.606a1.122,1.122,0,0,1,0,.145.263.263,0,0,1,0,.1.942.942,0,0,1-.082.207.3.3,0,0,1-.044.1,2.145,2.145,0,0,1-.215.338c-.082.11-.184.221-.285.331a4.541,4.541,0,0,1-.355.331,1.552,1.552,0,0,1-.228.186l-.184.145c-.139.1-.291.207-.449.3l-8.743,5.524a7.8,7.8,0,0,1-2.944,1.146V290.736l13.567-8.866v76.736Z" transform="translate(-185.16 -281.87)" fill="#fff"/>
        </g>
        <path id="Path_101" data-name="Path 101" d="M185.11,300.092v9.246a34.068,34.068,0,0,0,13.567-8.542V291.55A34.233,34.233,0,0,1,185.11,300.092Z" transform="translate(-138.046 -256.32)" fill="#fafafa"/>
        <path id="Path_102" data-name="Path 102" d="M185.11,374.672v9.246a33.918,33.918,0,0,0,13.567-8.542V366.13A34.081,34.081,0,0,1,185.11,374.672Z" transform="translate(-138.046 -279.402)" fill="#fafafa"/>
        <path id="Path_103" data-name="Path 103" d="M161.088,280.537l-.684-1.284a5.837,5.837,0,0,1-2.906,1,2.124,2.124,0,0,0-.241-1.257,3.676,3.676,0,0,0-1.31-1.312,4.867,4.867,0,0,0-1.988-.739h-.146a2.053,2.053,0,0,0-1.209.249l-35.991-22.662-1.228-.766-1.557-.981a.76.76,0,0,0-.848-.069l-1.38.856a.783.783,0,0,1,.867.055h0l4.128,2.6,34.82,21.91c.633.407,1.317.656,1.5.539l.323-.2a1.039,1.039,0,0,1,.722-.048,3.747,3.747,0,0,1,1.3.518c.766.483,1.1,1.063.741,1.284l-.317.2c-.184.117,0,.394.367.642l.7.428C157.511,282.007,159.461,281.566,161.088,280.537Z" transform="translate(-111.075 -244.271)" fill="#689bc8"/>
        <path id="Path_104" data-name="Path 104" d="M161.088,280.537l-.684-1.284a5.837,5.837,0,0,1-2.906,1,2.124,2.124,0,0,0-.241-1.257,3.676,3.676,0,0,0-1.31-1.312,4.867,4.867,0,0,0-1.988-.739h-.146a2.053,2.053,0,0,0-1.209.249l-35.991-22.662-1.228-.766-1.557-.981a.76.76,0,0,0-.848-.069l-1.38.856a.783.783,0,0,1,.867.055h0l4.128,2.6,34.82,21.91c.633.407,1.317.656,1.5.539l.323-.2a1.039,1.039,0,0,1,.722-.048,3.747,3.747,0,0,1,1.3.518c.766.483,1.1,1.063.741,1.284l-.317.2c-.184.117,0,.394.367.642l.7.428C157.511,282.007,159.461,281.566,161.088,280.537Z" transform="translate(-111.075 -244.271)" fill="#fff" opacity="0.6"/>
        <path id="Path_105" data-name="Path 105" d="M168.088,275.511l8.743-5.524.361-.242.279-.221h0a3.716,3.716,0,0,1-3.248-.546,3.517,3.517,0,0,1-1.266-1.284,2.128,2.128,0,0,1-.222-1.381l-.12-.076-.247-.152-34.82-21.91-1.994-1.264-.576-.352-1.684-1.063a.734.734,0,0,0-.753,0l.374-.242,1.007-.628a.687.687,0,0,1,.7,0h0c.2.117.405.255.633.387l.393.242c.228.152.456.29.671.421s.291.18.411.262l.3.186.513.318,27.641,17.415,8.832,5.559c.633.387,1,.8.848.939l-.051.041-.31.193c-.386.242-.076.829.69,1.305a1.718,1.718,0,0,0,1.747.276l.38-.242a.589.589,0,0,1,.551-.09l.2.131.437.276.538.338a.613.613,0,0,1,.291.691.135.135,0,0,1,0,.1.91.91,0,0,1-.076.207h0a.5.5,0,0,1-.044.1,1.53,1.53,0,0,1-.215.331,2.686,2.686,0,0,1-.279.331c-.114.117-.228.221-.361.338a2.085,2.085,0,0,1-.222.186l-.184.138a4.5,4.5,0,0,1-.449.311l-8.743,5.524Z" transform="translate(-118.758 -240.53)" fill="#689bc8"/>
        <path id="Path_106" data-name="Path 106" d="M168.088,275.511l8.743-5.524.361-.242.279-.221h0a3.716,3.716,0,0,1-3.248-.546,3.517,3.517,0,0,1-1.266-1.284,2.128,2.128,0,0,1-.222-1.381l-.12-.076-.247-.152-34.82-21.91-1.994-1.264-.576-.352-1.684-1.063a.734.734,0,0,0-.753,0l.374-.242,1.007-.628a.687.687,0,0,1,.7,0h0c.2.117.405.255.633.387l.393.242c.228.152.456.29.671.421s.291.18.411.262l.3.186.513.318,27.641,17.415,8.832,5.559c.633.387,1,.8.848.939l-.051.041-.31.193c-.386.242-.076.829.69,1.305a1.718,1.718,0,0,0,1.747.276l.38-.242a.589.589,0,0,1,.551-.09l.2.131.437.276.538.338a.613.613,0,0,1,.291.691.135.135,0,0,1,0,.1.91.91,0,0,1-.076.207h0a.5.5,0,0,1-.044.1,1.53,1.53,0,0,1-.215.331,2.686,2.686,0,0,1-.279.331c-.114.117-.228.221-.361.338a2.085,2.085,0,0,1-.222.186l-.184.138a4.5,4.5,0,0,1-.449.311l-8.743,5.524Z" transform="translate(-118.758 -240.53)" fill="#fff" opacity="0.6"/>
      </g>
    </g>
    <g id="freepik--character-2--inject-169" transform="translate(152.36 101.334)">
      <g id="freepik--Character--inject-169">
        <g id="freepik--Chair--inject-169" transform="translate(56.585 37.005)">
          <path id="Path_107" data-name="Path 107" d="M315,355.722l7.825-49.213,4.944-.269-10.237,49.475h0a.721.721,0,0,1-.336.483,1.761,1.761,0,0,1-1.76.1.639.639,0,0,1-.386-.573Z" transform="translate(-315 -222.98)" fill="#263238"/>
          <path id="Path_108" data-name="Path 108" d="M431.26,294.93h4.951l11.649,51.1h0a.7.7,0,0,1-.361.594,1.823,1.823,0,0,1-1.766,0,.73.73,0,0,1-.348-.47h0Z" transform="translate(-357.657 -219.48)" fill="#37474f"/>
          <path id="Path_109" data-name="Path 109" d="M377.13,387.043l.215-55.116,4.951-.276-2.678,55.386h0a.688.688,0,0,1-.329.483,1.819,1.819,0,0,1-1.76.1.645.645,0,0,1-.393-.573Z" transform="translate(-337.796 -230.844)" fill="#37474f"/>
          <path id="Path_110" data-name="Path 110" d="M388.54,270.09H393.5l7.933,54.315h0a.7.7,0,0,1-.361.594,1.823,1.823,0,0,1-1.766,0,.714.714,0,0,1-.354-.47h0Z" transform="translate(-341.983 -211.792)" fill="#263238"/>
          <g id="freepik--chair--inject-169-2" data-name="freepik--chair--inject-169" transform="translate(5.691)">
            <path id="Path_111" data-name="Path 111" d="M406.172,204.816a32.616,32.616,0,0,1,1.975,9.488c.57,7.271-1.69,30.824-3.045,41.355h0c-1.963,17.6-4.368,17.629-7.863,20.577-6.014,5.068-23.31,15-29.021,17.449-10.351,4.447-18.809-2.4-25.121-5.807a143.847,143.847,0,0,1-16.713-10.793c-1.576-1.25-2.393-2.52-2.374-3.853v-3.245c0-1.7,1.374-3.522,4.267-5.565,5.35-3.784,24.69-16.075,32.161-20.6a.08.08,0,0,1,.063-.069c5.761-3.812,9.224-29.747,13.219-43.543.082-.29.165-.58.253-.856s.139-.435.209-.642c.253-.746.513-1.436.785-2.072" transform="translate(-323.997 -189.06)" fill="#689bc8"/>
            <path id="Path_112" data-name="Path 112" d="M324,266.584c0-1.7,1.374-3.522,4.273-5.566,5.343-3.784,24.69-16.075,32.154-20.6a.08.08,0,0,1,.063-.069c5.761-3.812,9.224-29.747,13.219-43.543a25.566,25.566,0,0,1,.836-2.534.561.561,0,0,1,.07-.186q.108-.269.228-.559l.114-.283h0a13.347,13.347,0,0,1,2.659-4.191,5.987,5.987,0,0,1,1.31-1c.633-.4,2.007-1.222,2.342-1.443,3.919-2.555,9.047.511,15.447,4.336,3.976,2.375,7.369,5.206,9.439,10.475h0a32.614,32.614,0,0,1,1.975,9.488c.57,7.271-1.69,30.824-3.045,41.355h0c-1.963,17.6-4.368,17.629-7.863,20.577-6.014,5.068-23.31,15-29.021,17.449-10.351,4.447-18.809-2.4-25.121-5.807a143.841,143.841,0,0,1-16.714-10.793c-1.576-1.25-2.393-2.52-2.374-3.853C324,269.3,324,267.143,324,266.584Z" transform="translate(-323.989 -185.665)" fill="#689bc8"/>
            <path id="Path_113" data-name="Path 113" d="M324,266.584c0-1.7,1.374-3.522,4.273-5.566,5.343-3.784,24.69-16.075,32.154-20.6a.08.08,0,0,1,.063-.069c5.761-3.812,9.224-29.747,13.219-43.543a25.566,25.566,0,0,1,.836-2.534.561.561,0,0,1,.07-.186q.108-.269.228-.559l.114-.283h0a13.347,13.347,0,0,1,2.659-4.191,5.987,5.987,0,0,1,1.31-1c.633-.4,2.007-1.222,2.342-1.443,3.919-2.555,9.047.511,15.447,4.336,3.976,2.375,7.369,5.206,9.439,10.475h0a32.614,32.614,0,0,1,1.975,9.488c.57,7.271-1.69,30.824-3.045,41.355h0c-1.963,17.6-4.368,17.629-7.863,20.577-6.014,5.068-23.31,15-29.021,17.449-10.351,4.447-18.809-2.4-25.121-5.807a143.841,143.841,0,0,1-16.714-10.793c-1.576-1.25-2.393-2.52-2.374-3.853C324,269.3,324,267.143,324,266.584Z" transform="translate(-323.989 -185.665)" opacity="0.15"/>
            <path id="Path_114" data-name="Path 114" d="M343.1,304.617a145.585,145.585,0,0,1-16.713-10.8c-3.583-2.845-3.254-5.752,1.9-9.391,7.11-5.034,36.232-23.056,36.232-23.056s36.846,23.7,35.263,28.055-24.374,17.953-31.553,21C357.874,314.884,349.41,308.069,343.1,304.617Z" transform="translate(-323.997 -209.093)" fill="#689bc8"/>
            <path id="Path_115" data-name="Path 115" d="M343.1,304.617a145.585,145.585,0,0,1-16.713-10.8c-3.583-2.845-3.254-5.752,1.9-9.391,7.11-5.034,36.232-23.056,36.232-23.056s36.846,23.7,35.263,28.055-24.374,17.953-31.553,21C357.874,314.884,349.41,308.069,343.1,304.617Z" transform="translate(-323.997 -209.093)" fill="#fff" opacity="0.3"/>
            <path id="Path_116" data-name="Path 116" d="M410.78,188.05c3.874-2.217,8.908.8,15.137,4.523,3.995,2.382,7.394,5.213,9.458,10.5l2.634-1.657c-2.07-5.269-5.464-8.1-9.439-10.475-6.4-3.825-11.529-6.905-15.441-4.336C412.819,186.828,411.426,187.649,410.78,188.05Z" transform="translate(-355.834 -185.662)" fill="#689bc8"/>
            <path id="Path_117" data-name="Path 117" d="M410.78,188.05c3.874-2.217,8.908.8,15.137,4.523,3.995,2.382,7.394,5.213,9.458,10.5l2.634-1.657c-2.07-5.269-5.464-8.1-9.439-10.475-6.4-3.825-11.529-6.905-15.441-4.336C412.819,186.828,411.426,187.649,410.78,188.05Z" transform="translate(-355.834 -185.662)" fill="#fff" opacity="0.3"/>
            <path id="Path_118" data-name="Path 118" d="M381.65,241.082s3.754,1.347,17.144,8.521c5.5,2.942,9.116,5.911,14.263,9.446,7.6,5.2,7,9.059,7,9.059,3.767-3.4,7.521-42.887,6.6-54.84a32.469,32.469,0,0,0-2.159-9.943c-.1-.235-.2-.47-.31-.691s-.146-.318-.222-.47l-.114-.221a17.7,17.7,0,0,0-.956-1.664l-.247-.387c-.095-.124-.177-.255-.266-.38l-.266-.366-.234-.29a16.878,16.878,0,0,0-1.361-1.54,4.7,4.7,0,0,0-.361-.366,22.543,22.543,0,0,0-2.393-1.982c-.133-.1-.26-.193-.386-.276l-.532-.359c-.146-.1-.291-.2-.443-.29-.386-.249-.779-.5-1.178-.732-4.761-2.845-8.825-5.282-12.206-5.282a6.041,6.041,0,0,0-4.242,1.761c-2.5,2.4-3.8,7.464-3.913,7.754C390.874,211.335,387.411,237.27,381.65,241.082Z" transform="translate(-345.146 -186.395)" fill="#689bc8"/>
            <path id="Path_119" data-name="Path 119" d="M381.65,241.082s3.754,1.347,17.144,8.521c5.5,2.942,9.116,5.911,14.263,9.446,7.6,5.2,7,9.059,7,9.059,3.767-3.4,7.521-42.887,6.6-54.84a32.469,32.469,0,0,0-2.159-9.943c-.1-.235-.2-.47-.31-.691s-.146-.318-.222-.47l-.114-.221a17.7,17.7,0,0,0-.956-1.664l-.247-.387c-.095-.124-.177-.255-.266-.38l-.266-.366-.234-.29a16.878,16.878,0,0,0-1.361-1.54,4.7,4.7,0,0,0-.361-.366,22.543,22.543,0,0,0-2.393-1.982c-.133-.1-.26-.193-.386-.276l-.532-.359c-.146-.1-.291-.2-.443-.29-.386-.249-.779-.5-1.178-.732-4.761-2.845-8.825-5.282-12.206-5.282a6.041,6.041,0,0,0-4.242,1.761c-2.5,2.4-3.8,7.464-3.913,7.754C390.874,211.335,387.411,237.27,381.65,241.082Z" transform="translate(-345.146 -186.395)" fill="#fff" opacity="0.1"/>
          </g>
        </g>
        <g id="freepik--Bottom--inject-169" transform="translate(50.536 87.204)">
          <path id="Path_120" data-name="Path 120" d="M359.594,322.8l-7.027-10-10.927,8.776c7.287,5.386,15.3,12.112,17.271,14.708,0,0,6.211-2.879,6.609-6.684S361.494,323.641,359.594,322.8Z" transform="translate(-318.725 -275.209)" fill="#ffa8a7"/>
          <path id="Path_121" data-name="Path 121" d="M381.381,331.41a5.571,5.571,0,0,1,1.722,1.381c.532.594.962,3.888,1.621,5.324s1.032,1.775,2.02,3.542c1.1,1.954,2.792,3.6,2.178,9.329s-2.64,8.811-4.495,10.558a5.339,5.339,0,0,1-2.393,1.174s-2.919-.573-2.8-2.417S381.381,331.41,381.381,331.41Z" transform="translate(-332.515 -280.969)" fill="#263238"/>
          <path id="Path_122" data-name="Path 122" d="M365.318,338.343c.171.539,1.032,1.257,1.4,1.65a14.923,14.923,0,0,1,2.691,5.055c3.07,8.245.7,13.23,5.47,15.585,1.374.594,3.874-.152,6.812-6.339,1.5-3.163,1.659-9.059.449-11.476s-2.532-3.867-3.381-5.745-1.2-5.614-2.494-7.105a7.327,7.327,0,0,0-2.849-1.8c-.836-.345-2.583-.691-3.431-.987s-1.361-.766-1.747-.062l1.083,1.008c1.735,1.8,1.405,2.182,1.564,3.3A18.24,18.24,0,0,0,372,334.876c-1.209-1.153-1.817-2.251-2.849-1.823s-1.171.394-2.437,2.272S365.166,337.859,365.318,338.343Z" transform="translate(-327.399 -279.525)" fill="#689bc8"/>
          <path id="Path_123" data-name="Path 123" d="M365.318,338.343c.171.539,1.032,1.257,1.4,1.65a14.923,14.923,0,0,1,2.691,5.055c3.07,8.245.7,13.23,5.47,15.585,1.374.594,3.874-.152,6.812-6.339,1.5-3.163,1.659-9.059.449-11.476s-2.532-3.867-3.381-5.745-1.2-5.614-2.494-7.105a7.327,7.327,0,0,0-2.849-1.8c-.836-.345-2.583-.691-3.431-.987s-1.361-.766-1.747-.062l1.083,1.008c1.735,1.8,1.405,2.182,1.564,3.3A18.24,18.24,0,0,0,372,334.876c-1.209-1.153-1.817-2.251-2.849-1.823s-1.171.394-2.437,2.272S365.166,337.859,365.318,338.343Z" transform="translate(-327.399 -279.525)" opacity="0.4"/>
          <path id="Path_124" data-name="Path 124" d="M385.425,360.463c1.5-3.162,1.659-9.059.449-11.476a24.789,24.789,0,0,0-1.329-2.306c.063.173.139.338.184.483.108.318.2.642.291.974a8.44,8.44,0,0,1,.272,3.97c-.26,1.16-.829,4.046-2.14,4.371-.747.186-1.513-.483-1.956-1.34-.19-.359-.57-1.381-.57-1.381a11.817,11.817,0,0,0-3.165,2.23c-1.684,1.775-1.557,2.071-1.557,2.071a6.035,6.035,0,0,1,.373,1.823,4.966,4.966,0,0,1-.4,1.975,2.771,2.771,0,0,1-.418.525,5.625,5.625,0,0,0,3.165,4.405C379.987,367.4,382.487,366.649,385.425,360.463Z" transform="translate(-331.134 -285.695)" opacity="0.3"/>
          <path id="Path_125" data-name="Path 125" d="M371.378,352.424a31.685,31.685,0,0,1,1.665,6.746c1.1,2.072,1.716,1.857,1.608.691s-2.3-5.593-4-9.28C370.916,351.208,371.156,351.83,371.378,352.424Z" transform="translate(-329.369 -286.902)" fill="#37474f"/>
          <path id="Path_126" data-name="Path 126" d="M373.559,330.327a5.073,5.073,0,0,0-1.3-2.976c-.209-.062-.4-.117-.557-.18-.918-.345-1.361-.766-1.747-.062l1.083,1.008c1.735,1.8,1.405,2.182,1.564,3.3a18.236,18.236,0,0,0,1.114,3.453c1.437,3.556,2.38,4.647,3.355,8.086s.734,5.931,1.228,6.042,1.336-.483,1.026-3.335-2.266-7.347-3.45-9.432S373.647,331.866,373.559,330.327Z" transform="translate(-329.112 -279.519)" fill="#37474f"/>
          <path id="Path_127" data-name="Path 127" d="M380.952,357a.279.279,0,0,1-.146.131,8.091,8.091,0,0,0-4.59,4.343.315.315,0,0,1-.443.131.349.349,0,0,1-.156-.217.38.38,0,0,1,.035-.273,8.711,8.711,0,0,1,4.906-4.64.32.32,0,0,1,.424.193.379.379,0,0,1-.032.331Z" transform="translate(-331.188 -288.719)" fill="#ebebeb"/>
          <path id="Path_128" data-name="Path 128" d="M379.382,352.875a.35.35,0,0,1-.146.131,9.065,9.065,0,0,0-4.811,4.7.33.33,0,0,1-.2.177.3.3,0,0,1-.258-.046.356.356,0,0,1-.156-.221.387.387,0,0,1,.036-.276,9.753,9.753,0,0,1,5.128-5,.3.3,0,0,1,.254-.007.344.344,0,0,1,.183.193A.4.4,0,0,1,379.382,352.875Z" transform="translate(-330.524 -287.436)" fill="#ebebeb"/>
          <path id="Path_129" data-name="Path 129" d="M378.253,348.158a.416.416,0,0,1-.158.145,10.31,10.31,0,0,0-5.375,5.269.352.352,0,0,1-.473.085.426.426,0,0,1-.161-.492,11.087,11.087,0,0,1,5.7-5.6.339.339,0,0,1,.284-.008.384.384,0,0,1,.2.215.455.455,0,0,1-.019.387Z" transform="translate(-329.888 -285.958)" fill="#ebebeb"/>
          <path id="Path_130" data-name="Path 130" d="M376.878,344.294a.36.36,0,0,1-.152.145,10.051,10.051,0,0,0-5.261,5.144.349.349,0,0,1-.5.148.417.417,0,0,1-.136-.542,10.78,10.78,0,0,1,5.6-5.476.328.328,0,0,1,.276-.01.371.371,0,0,1,.2.21A.4.4,0,0,1,376.878,344.294Z" transform="translate(-329.419 -284.766)" fill="#ebebeb"/>
          <path id="Path_131" data-name="Path 131" d="M374.7,340.722a.4.4,0,0,1-.158.138,10.054,10.054,0,0,0-5.255,5.151.351.351,0,0,1-.5.145.429.429,0,0,1-.133-.546,10.825,10.825,0,0,1,5.6-5.476.356.356,0,0,1,.481.207.447.447,0,0,1-.032.38Z" transform="translate(-328.619 -283.659)" fill="#ebebeb"/>
          <path id="Path_132" data-name="Path 132" d="M352.132,261.91s-28.217,6.8-38.454,9.833c-10.452,3.087-9.344,11.939-5.457,16.427,7.451,8.611,28.6,24.479,28.6,24.479s6-4.026,6.457-10.068l-5.812-8.977,21.025-2.8,3.02-3.977Z" transform="translate(-305.444 -259.459)" fill="#455a64"/>
          <path id="Path_133" data-name="Path 133" d="M347.138,318.577c1.488-3.777,2.811-4.937,6.489-7.637l4.432,6.815c-.462,6.042-6.457,10.068-6.457,10.068s-2.444-1.83-5.951-4.585a46.621,46.621,0,0,1,1.488-4.661Z" transform="translate(-320.196 -274.633)" fill="#37474f"/>
          <path id="Path_134" data-name="Path 134" d="M344.955,289.371c1.83,1.754,3.438,3.342,4.843,4.9s4.653,1.567,7.546,0a61.113,61.113,0,0,0,9.648-7.168c-3.279-3.991-1.975-9.84-1.975-9.84.329,3.8,1.9,6.953,3.577,8.459l1.779,1.381.633,6.014-.994,2.368-21.386,2.9c-5.869-8.321-7.895-12.146-12.807-12.781C335.826,285.581,339.543,284.179,344.955,289.371Z" transform="translate(-316.59 -264.21)" fill="#37474f"/>
          <path id="Path_135" data-name="Path 135" d="M349.3,379.051l.3-1.1,6.844-19.334-12.909-5.269c-1.684,9.95-3.754,23.077-5.7,26.529,0,0,3.5,5.918,6.964,5.227S349.124,381.322,349.3,379.051Z" transform="translate(-317.327 -287.759)" fill="#ffa8a7"/>
          <path id="Path_136" data-name="Path 136" d="M339.39,400.8a6.211,6.211,0,0,1-.734,2.217c-.361.725-3.127,2.134-4.191,3.238s-1.266,1.6-2.532,3.149c-1.393,1.712-2.349,3.957-7.546,4.992s-8.5-.18-10.566-1.6a5.97,5.97,0,0,1-1.728-2.154s-.354-3.211,1.3-3.632S339.39,400.8,339.39,400.8Z" transform="translate(-307.872 -302.444)" fill="#263238"/>
          <path id="Path_137" data-name="Path 137" d="M328.867,387.74a6.86,6.86,0,0,0-1.038,1.94,14.641,14.641,0,0,1-3.64,4.288c-6.331,5.614-11.4,4.585-12.073,10.261-.12,1.6,1.266,3.991,7.553,5.248,3.2.642,8.426-.918,10.193-2.879s2.646-3.791,4.052-5.206,4.565-2.9,5.5-4.682a8.618,8.618,0,0,0,.753-3.494c.057-.974.082-4.26.082-4.26-1.07,2.341-2.748,2.072-3.678,2.569a16.258,16.258,0,0,0-2.678,2.161c.633-1.6,1.437-2.548.766-3.5s-.69-1.112-2.71-1.878S329.247,387.443,328.867,387.74Z" transform="translate(-307.89 -298.354)" fill="#689bc8"/>
          <path id="Path_138" data-name="Path 138" d="M328.867,387.74a6.86,6.86,0,0,0-1.038,1.94,14.641,14.641,0,0,1-3.64,4.288c-6.331,5.614-11.4,4.585-12.073,10.261-.12,1.6,1.266,3.991,7.553,5.248,3.2.642,8.426-.918,10.193-2.879s2.646-3.791,4.052-5.206,4.565-2.9,5.5-4.682a8.618,8.618,0,0,0,.753-3.494c.057-.974.082-4.26.082-4.26-1.07,2.341-2.748,2.072-3.678,2.569a16.258,16.258,0,0,0-2.678,2.161c.633-1.6,1.437-2.548.766-3.5s-.69-1.112-2.71-1.878S329.247,387.443,328.867,387.74Z" transform="translate(-307.89 -298.354)" opacity="0.4"/>
          <path id="Path_139" data-name="Path 139" d="M319.669,414.514c3.2.642,8.426-.918,10.193-2.879a23.159,23.159,0,0,0,1.627-2.072c-.127.117-.247.249-.361.338-.253.2-.513.4-.772.587a6.922,6.922,0,0,1-3.4,1.443c-1.1.062-3.8.318-4.463-.96a2.372,2.372,0,0,1,.6-2.431c.266-.3,1.026-.987,1.026-.987a11.967,11.967,0,0,0-2.88-2.658c-2.045-1.236-2.266-1.022-2.266-1.022a5.192,5.192,0,0,1-1.488.925,3.9,3.9,0,0,1-1.849.152,2.584,2.584,0,0,1-.583-.276,5.671,5.671,0,0,0-2.937,4.585C312,410.862,313.382,413.258,319.669,414.514Z" transform="translate(-307.89 -303.391)" opacity="0.3"/>
          <path id="Path_140" data-name="Path 140" d="M327.463,396.239a26.707,26.707,0,0,1-5.438,3.7c-1.475,1.747-1.121,2.334-.139,1.885s4.229-4.033,6.964-6.905C328.394,395.4,327.919,395.831,327.463,396.239Z" transform="translate(-311.164 -300.625)" fill="#37474f"/>
          <path id="Path_141" data-name="Path 141" d="M344.013,392.64a5.715,5.715,0,0,0,2.4-1.312c.45-.449.146-1.768-.038-2.348l-.342,1.174a10.787,10.787,0,0,1-3.248,1.8,16.252,16.252,0,0,0-2.678,2.161c-2.7,2.541-3.387,3.839-6.116,5.869s-4.982,2.5-4.932,3.038.81,1.257,3.216.1,5.786-4.509,7.262-6.353S342.7,393.185,344.013,392.64Z" transform="translate(-314.109 -298.786)" fill="#37474f"/>
          <path id="Path_142" data-name="Path 142" d="M327.68,407.76a.308.308,0,0,1-.158-.11,7.779,7.779,0,0,0-5.141-3.522.334.334,0,0,1-.288-.235.382.382,0,0,1,.081-.382.309.309,0,0,1,.353-.073,8.443,8.443,0,0,1,5.508,3.763.389.389,0,0,1-.051.5A.307.307,0,0,1,327.68,407.76Z" transform="translate(-311.545 -303.252)" fill="#ebebeb"/>
          <path id="Path_143" data-name="Path 143" d="M331.016,405.13a.422.422,0,0,1-.158-.111,8.7,8.7,0,0,0-5.521-3.653.324.324,0,0,1-.213-.157.38.38,0,0,1-.04-.278.367.367,0,0,1,.15-.231.312.312,0,0,1,.256-.046,9.34,9.34,0,0,1,5.881,3.888.381.381,0,0,1,.079.264.371.371,0,0,1-.117.247A.321.321,0,0,1,331.016,405.13Z" transform="translate(-312.647 -302.397)" fill="#ebebeb"/>
          <path id="Path_144" data-name="Path 144" d="M334.866,402.764a.384.384,0,0,1-.177-.124,9.868,9.868,0,0,0-6.185-4.067.406.406,0,0,1-.279-.483.371.371,0,0,1,.443-.3,10.607,10.607,0,0,1,6.584,4.329.424.424,0,0,1,.089.292.414.414,0,0,1-.127.274.339.339,0,0,1-.348.083Z" transform="translate(-313.799 -301.508)" fill="#ebebeb"/>
          <path id="Path_145" data-name="Path 145" d="M338.234,400.343a.374.374,0,0,1-.171-.124,9.63,9.63,0,0,0-6.046-3.977.4.4,0,0,1-.272-.476.393.393,0,0,1,.163-.244.335.335,0,0,1,.274-.046,10.294,10.294,0,0,1,6.432,4.233.417.417,0,0,1,.088.288.407.407,0,0,1-.126.271A.332.332,0,0,1,338.234,400.343Z" transform="translate(-315.091 -300.793)" fill="#ebebeb"/>
          <path id="Path_146" data-name="Path 146" d="M341.052,397.193a.341.341,0,0,1-.171-.124,9.629,9.629,0,0,0-6.052-3.977.4.4,0,0,1-.269-.473.361.361,0,0,1,.434-.293,10.306,10.306,0,0,1,6.438,4.233.422.422,0,0,1,.031.475.346.346,0,0,1-.411.16Z" transform="translate(-316.124 -299.818)" fill="#ebebeb"/>
          <path id="Path_147" data-name="Path 147" d="M340.71,341.615c3.387,3.839,11.547,3.563,11.547,3.563s2.349-4.889,6.584-15.585c2.361-5.973,3.678-8.68,4.679-17.021,7.185-3.839,19.955-9.35,32.059-19.217,8.667-7.071,10.041-16.669,8.939-28.042-1.355-13.976-38.979-2.562-38.979-2.562,2.488,7.6,1.931,15.046,6.628,18.478,0,0-15.15,11.856-20.259,16.089-2.349,1.94-3.457,2.583-4.583,8.473C344.008,323.019,340.71,341.615,340.71,341.615Z" transform="translate(-318.384 -258.36)" fill="#455a64"/>
          <path id="Path_148" data-name="Path 148" d="M355.731,347.186l-.671-.048c2.6-5.338,6.533-16.793,8-21.73.481-1.609,1.462-6.139,1.754-7.382,1.386-5.925,1.583-8.079,3.077-8.638.374-.138,1.2-.691,2.488-1.381,6.559-3.549,22.424-12.339,27.906-17.953.158-.166.3-.345.462-.518-2.767-1.733-3.621-6.339-2.621-9.6,1.07-3.494,1-9.819-.69-12.429l.494-.38c1.969,3.038,1.773,9.736.772,13.009-.943,3.066-.063,7.444,2.488,8.914,5.109-5.945,6.426-14.142,3.8-23.809l.576-.186c2.849,10.523,1.171,19.3-4.856,25.514-5.546,5.683-21.474,14.5-28.052,18.064-1.234.69-2.127,1.153-2.469,1.381-1.418.842-1.944,4.916-2.76,8.334-.3,1.25-1.266,5.731-1.792,7.347C362.03,330.683,358.187,342.007,355.731,347.186Z" transform="translate(-323.649 -260.431)" fill="#37474f"/>
        </g>
        <g id="freepik--Desk--inject-169" transform="translate(0 72.513)">
          <path id="Path_149" data-name="Path 149" d="M346.78,347.758l2.058-1.3,5.343,73.346-2.058,1.3Z" transform="translate(-270.075 -270.935)" fill="#455a64"/>
          <path id="Path_150" data-name="Path 150" d="M345,347.47l-3.077-1.94,6.362,73.988,2.058,1.3Z" transform="translate(-268.292 -270.648)" fill="#37474f"/>
          <path id="Path_151" data-name="Path 151" d="M254.4,296.638l2.058-1.3L250.1,361.318l-2.058,1.291Z" transform="translate(-233.846 -255.114)" fill="#455a64"/>
          <path id="Path_152" data-name="Path 152" d="M253.21,296.35l-3.077-1.94-5.343,66.62,2.057,1.291Z" transform="translate(-232.654 -254.826)" fill="#37474f"/>
          <path id="Path_153" data-name="Path 153" d="M403.5,315.048l2.058-1.3L410.9,387.1l-2.058,1.3Z" transform="translate(-290.887 -260.812)" fill="#455a64"/>
          <path id="Path_154" data-name="Path 154" d="M401.717,314.76l-3.077-1.94L405,386.808l2.058,1.3Z" transform="translate(-289.103 -260.524)" fill="#37474f"/>
          <path id="Path_155" data-name="Path 155" d="M311.123,263.928l2.057-1.3-6.362,65.978L304.76,329.9Z" transform="translate(-254.658 -244.991)" fill="#455a64"/>
          <path id="Path_156" data-name="Path 156" d="M309.93,263.64l-3.077-1.94-5.343,66.62,2.058,1.291Z" transform="translate(-253.465 -244.703)" fill="#37474f"/>
          <g id="freepik--desk--inject-169-2" data-name="freepik--desk--inject-169">
            <path id="Path_157" data-name="Path 157" d="M357.416,290.2V287.5a1.535,1.535,0,0,0-.633-1.181l-77.87-49.067a1.267,1.267,0,0,0-1.266,0l-51.394,32.419a1.521,1.521,0,0,0-.633,1.181v2.658a1.542,1.542,0,0,0,.633,1.181l77.87,49.068a1.267,1.267,0,0,0,1.266,0l51.394-32.419A1.517,1.517,0,0,0,357.416,290.2Z" transform="translate(-225.62 -237.085)" fill="#689bc8"/>
            <path id="Path_158" data-name="Path 158" d="M357.416,290.2V287.5a1.535,1.535,0,0,0-.633-1.181l-77.87-49.067a1.267,1.267,0,0,0-1.266,0l-51.394,32.419a1.521,1.521,0,0,0-.633,1.181v2.658a1.542,1.542,0,0,0,.633,1.181l77.87,49.068a1.267,1.267,0,0,0,1.266,0l51.394-32.419A1.517,1.517,0,0,0,357.416,290.2Z" transform="translate(-225.62 -237.085)" fill="#fff" opacity="0.2"/>
            <path id="Path_159" data-name="Path 159" d="M350.64,341.8v4.233a1.239,1.239,0,0,0,.633-.159l51.394-32.419a1.55,1.55,0,0,0,.633-1.188v-2.658a1.553,1.553,0,0,0-.513-1.091.407.407,0,0,1-.114.69l-51.394,32.454a1.177,1.177,0,0,1-.639.138Z" transform="translate(-271.492 -259.193)" fill="#689bc8"/>
            <path id="Path_160" data-name="Path 160" d="M357.008,287.124l-51.394,32.454a1.267,1.267,0,0,1-1.266,0l-77.87-49.068a.427.427,0,0,1,0-.787L277.873,237.3a1.267,1.267,0,0,1,1.266,0l77.87,49.068C357.357,286.558,357.357,286.91,357.008,287.124Z" transform="translate(-225.839 -237.1)" fill="#689bc8"/>
            <path id="Path_161" data-name="Path 161" d="M357.008,287.124l-51.394,32.454a1.267,1.267,0,0,1-1.266,0l-77.87-49.068a.427.427,0,0,1,0-.787L277.873,237.3a1.267,1.267,0,0,1,1.266,0l77.87,49.068C357.357,286.558,357.357,286.91,357.008,287.124Z" transform="translate(-225.839 -237.1)" fill="#fff" opacity="0.5"/>
          </g>
        </g>
        <g id="freepik--Laptop--inject-169" transform="translate(24 80.093)">
          <g id="freepik--laptop--inject-169-2" data-name="freepik--laptop--inject-169">
            <path id="Path_162" data-name="Path 162" d="M263.53,267.16,290.9,249.9a1.475,1.475,0,0,1,1.576,0L339.956,279.8a.4.4,0,0,1,0,.691l-27.628,17.4Z" transform="translate(-263.53 -248.56)" opacity="0.2"/>
            <path id="Path_163" data-name="Path 163" d="M269.66,271.3v.649a2.69,2.69,0,0,0,1.209,2.286l42.417,26.709a2.225,2.225,0,0,0,1.209.352,2.312,2.312,0,0,0,1.222-.352l23.12-14.5a2.7,2.7,0,0,0,1.209-2.286v-.891h0a.338.338,0,0,1-.152.29l-25.406,15.985Z" transform="translate(-265.779 -255.255)" fill="#37474f"/>
            <path id="Path_164" data-name="Path 164" d="M269.65,264.108,294.8,248.275a1.346,1.346,0,0,1,1.45,0l43.626,27.475a.369.369,0,0,1,0,.608l-25.38,15.992Z" transform="translate(-265.776 -248.063)" fill="#455a64"/>
            <path id="Path_165" data-name="Path 165" d="M317.812,293.8l13.567-8.535L291.717,260.29l-13.637,8.493Z" transform="translate(-268.869 -251.847)" fill="#37474f"/>
            <path id="Path_166" data-name="Path 166" d="M278.08,268.783l.519.325,13.118-8.162L330.86,285.6l.513-.325L291.717,260.29Z" transform="translate(-268.869 -251.847)" fill="#263238"/>
            <path id="Path_167" data-name="Path 167" d="M340.377,271.043l-.247.152-6.647,4.191-11.826-7.451-.247-.152,6.9-4.343Z" transform="translate(-284.767 -252.822)" fill="#263238"/>
            <path id="Path_168" data-name="Path 168" d="M340.273,271.334l-6.647,4.191L321.8,268.074l6.654-4.184Z" transform="translate(-284.91 -252.961)" fill="#37474f"/>
            <path id="Path_169" data-name="Path 169" d="M314.488,299.535V301.3a2.289,2.289,0,0,1-1.216-.352l-42.417-26.709a2.689,2.689,0,0,1-1.216-2.292V271.3Z" transform="translate(-265.772 -255.255)" fill="#263238"/>
          </g>
        </g>
        <g id="freepik--Arm--inject-169" transform="translate(55.794 39.494)">
          <path id="Path_170" data-name="Path 170" d="M330.672,224.5c4.178-1.768,14.675-6.8,14.675-6.8s9.465-17.318,11.535-20.95c2.482-4.343,6-7.6,11.75-7.1l-1.013,18.14s-10.205,15.971-12.029,18.6c-1.386,2-1.3,2.562-4.976,3.4l-17.365,3.957-.7.228a2.409,2.409,0,0,0-1.216.9,7.654,7.654,0,0,0-.76,1.381c-.728,1.692-.671,2.265-1.418,4.095s-1.1,1.664-2.273,3.059-1.557,2.182-2.089,2.072-.8-1.609-.418-2.866,1.513-2.375,1.7-2.893.139-1.271-1.171-.967-4.147,3.059-5.413,4.24-2.3,2.969-3.45,3.736-1.089-.532-1.171-1.65-1.121-2.817-1.121-4.592a14.11,14.11,0,0,1,3.463-7.471c1.646-1.436,4.818-3.915,5.66-4.454a46.6,46.6,0,0,1,7.8-4.06Z" transform="translate(-313.75 -189.369)" fill="#ffa8a7"/>
          <path id="Path_171" data-name="Path 171" d="M388.641,189.359a10.46,10.46,0,0,0-8.148,2.072c-2.583,2.2-3.868,4.095-7.686,11.138s-5.7,10.648-5.7,10.648a13.086,13.086,0,0,0,4.571,6,22.364,22.364,0,0,0,6.59,2.817l9.661-14.307Z" transform="translate(-333.328 -189.267)" fill="#689bc8"/>
        </g>
        <g id="freepik--Top--inject-169" transform="translate(96.709)">
          <g id="freepik--Chest--inject-169">
            <path id="Path_172" data-name="Path 172" d="M382.178,206.221c1.026-12.263,4.862-16.406,10.6-16.821a106.878,106.878,0,0,1,12.529,1.333,47.121,47.121,0,0,1,13.757,5.821c2.849,1.933,3.754,6.083,3.8,14.77a211.736,211.736,0,0,1-1.494,25.045,140.387,140.387,0,0,1-3.925,21.585c-7.92,2.886-39.3-7.6-39.061-18.554.817-2.507,2.229-5.407,2.874-10.489C382.083,219.976,381.855,210.074,382.178,206.221Z" transform="translate(-378.378 -149.814)" fill="#263238"/>
            <g id="freepik--Head--inject-169" transform="translate(7.075)">
              <path id="Path_173" data-name="Path 173" d="M413.007,168.508c.772-3.377,4.14-6.691,5.755-9.557s2.532-4.93,2.532-7.651c0-1.609-.753-3.86-1.811-4.405,1.678-5.849-2.2-8.569-4-9.425-.785-.38-2.532-1.008-3.311-1.436-1.146-.635-1.342-1.7-2.235-2.658-1.532-1.657-4.3-1.92-5.508.3-.988-1.636-2.475-1.719-4.216-1.381a3.15,3.15,0,0,0-2.494,3.453,2.98,2.98,0,0,0-4.729,1.45c-.228,1.07-.082,2-.8,2.921-.81,1.029-2.19.9-2.532,0-.342,1.519.127,2.762,1.665,2.762a3.691,3.691,0,0,0-.633,2.9,3.027,3.027,0,0,0,2.494,2.417,5,5,0,0,0,2.2,4.323,30.246,30.246,0,0,0,7.223,2.762l2.912.911c.171.055,1.057.186,1.152.359Z" transform="translate(-389.553 -132.071)" fill="#263238"/>
              <path id="Path_174" data-name="Path 174" d="M418.265,169.108a2.878,2.878,0,0,1-3.691-.428l-.633,11.3c-2.058,4.682-9.68,4.875-12.339,3.28s-2.184-3.349-.209-5.9l-.063-1.864a28.158,28.158,0,0,1-3.716-.49c-2.437-.573-4.14-2.9-4.641-5.862a33.156,33.156,0,0,1,.5-11.545,10.736,10.736,0,0,0,.329-2.8,14.256,14.256,0,0,1,1.19-5.987c2.868-2.154,9.186-2.444,14.757,1.913-.937,3.729.2,6.843,2.634,8.5-.19,1.015-.487,3.591,1.057,3.667,1.114.055,1.266-1.457,2.532-2.7s3.919-1.381,4.818.691C422.038,163.743,420.791,167.727,418.265,169.108Z" transform="translate(-390.702 -136.779)" fill="#ffa8a7"/>
              <path id="Path_175" data-name="Path 175" d="M418.693,161.3l7.242,2.817a3.14,3.14,0,0,0-1.165,1.215l-6.331-2.168Z" transform="translate(-400.152 -141.117)" fill="#263238"/>
              <path id="Path_176" data-name="Path 176" d="M391.5,157.016c-.095.787.285,1.056.336,1.65a23.82,23.82,0,0,0,.038,3.211,3.171,3.171,0,0,0,2.6,2.8,3.124,3.124,0,0,0,3.659-1.65c.684-1.07.753-2.762,1.7-2.569s.576,1.83.918,3.121a3.817,3.817,0,0,0,3.165,3.093,3.064,3.064,0,0,0,2.672-.539c1.152-.918,1.38-2.762,1.823-3.991.209-.615.684-.649.855-1.422s-.38-1.119-.943-1.243a14.55,14.55,0,0,0-5.065-.884c-1.684.18-2.336.642-3.229.456s-1.266-.87-2.691-1.7a14.343,14.343,0,0,0-5.153-1.195C391.932,156.146,391.571,156.526,391.5,157.016Zm10.364,3.1a1.411,1.411,0,0,1,.525-.325h.1a5.619,5.619,0,0,1,2.418-.249,3.97,3.97,0,0,1,2.767,1.153c.361.656-.234,2.541-.6,3.453h0a3.084,3.084,0,0,1-.158.325h0l-.1.18c-.95,1.94-3.969,1.471-4.881-.214h0A5.115,5.115,0,0,1,401.865,160.116Zm-8.946-2.548a1.212,1.212,0,0,1,.424-.193h.032a1.756,1.756,0,0,1,.38-.069h.082c1.386-.159,3.837.953,4.3,2.072a5.212,5.212,0,0,1-.6,3.059,3.389,3.389,0,0,1-.437.656,2.689,2.689,0,0,1-3.672.221,3.817,3.817,0,0,1-1.013-2.948C392.445,159.5,392.52,157.852,392.919,157.568Z" transform="translate(-390.262 -139.526)" fill="#37474f"/>
              <path id="Path_177" data-name="Path 177" d="M402.7,163.828l-1.766,6.3-3.558-2.417.532-.691.253-.352.532-.691c.468-.628.943-1.243,1.386-1.781a14.672,14.672,0,0,1,1.019-1.1h0a6.251,6.251,0,0,1,.557-.511,1.642,1.642,0,0,1,.177-.145h.127C402.54,162.523,402.647,163.1,402.7,163.828Z" transform="translate(-392.425 -141.47)" fill="#f28f8f"/>
              <path id="Path_178" data-name="Path 178" d="M406.35,184.488c3.938-.18,6.964-.394,9.186-3.314a27.417,27.417,0,0,0,2.7-4.834,21.972,21.972,0,0,1-2.108,6.215c-1.121,1.892-3.564,3.453-9.724,3.508Z" transform="translate(-395.716 -145.772)" fill="#f28f8f"/>
              <path id="Path_179" data-name="Path 179" d="M409.048,164.285a1.176,1.176,0,0,0,1,1.291,1.131,1.131,0,0,0,1.2-1.066,1.183,1.183,0,0,0-.959-1.323,1.057,1.057,0,0,0-.827.268A1.258,1.258,0,0,0,409.048,164.285Z" transform="translate(-396.705 -141.699)" fill="#263238"/>
              <path id="Path_180" data-name="Path 180" d="M411.82,157.088l2.463,1.181a1.6,1.6,0,0,0-.715-1.982,1.211,1.211,0,0,0-1.031-.007A1.381,1.381,0,0,0,411.82,157.088Z" transform="translate(-397.723 -139.529)" fill="#263238"/>
              <path id="Path_181" data-name="Path 181" d="M408.025,175.57l-3.735.877a2.005,2.005,0,0,0,2.342,1.63,1.877,1.877,0,0,0,1.187-.929,2.19,2.19,0,0,0,.206-1.577Z" transform="translate(-394.96 -145.534)" fill="#b16668"/>
              <path id="Path_182" data-name="Path 182" d="M406.32,178.249a2.274,2.274,0,0,1,2.5-1.83,1.975,1.975,0,0,1-1.437,1.913,1.75,1.75,0,0,1-1.064-.083Z" transform="translate(-395.705 -145.789)" fill="#f28f8f"/>
              <path id="Path_183" data-name="Path 183" d="M396.15,155.5l2.71-.11a1.489,1.489,0,0,0-.4-1.035,1.246,1.246,0,0,0-.96-.4,1.507,1.507,0,0,0-1.355,1.547Z" transform="translate(-391.973 -138.842)" fill="#263238"/>
              <path id="Path_184" data-name="Path 184" d="M395.8,161.838a1.107,1.107,0,1,0,1.14-1.208,1.072,1.072,0,0,0-.8.346,1.278,1.278,0,0,0-.339.863Z" transform="translate(-391.845 -140.91)" fill="#263238"/>
            </g>
          </g>
        </g>
        <g id="freepik--arm--inject-169-2" data-name="freepik--arm--inject-169" transform="translate(75.461 46.111)">
          <path id="Path_185" data-name="Path 185" d="M363.652,264.376a16.868,16.868,0,0,0-7.027-.9c-2.684.173-4.792-.621-5.179-.476-1.418.552-.519,3.162,2.912,3.584C356.967,266.91,363.652,264.376,363.652,264.376Z" transform="translate(-347.012 -218.699)" fill="#f28f8f"/>
          <path id="Path_186" data-name="Path 186" d="M397.168,253.9c-6.09.987-24.19,1.816-25.045,2.009-.367.083-1.994.373-2.412.449-.9.166-1.773.366-2.678.511a6.979,6.979,0,0,1-1.564.124,18.8,18.8,0,0,1-3.628-.766,6.091,6.091,0,0,0-2.925-.18c-1.2.228-2.38.539-3.577.829a4.359,4.359,0,0,1-2.9-.166,7.264,7.264,0,0,1-.924-.573,4.968,4.968,0,0,0-1.462-.318,1.909,1.909,0,0,1-1.013-.6c-.146-.186-.184-.5-.361-.656a1.776,1.776,0,0,0-.962-.262,6.923,6.923,0,0,1-1.494-.3c-.633-.242-1.564-.746-1.386-1.643.082-.407.386-.559.7-.794.532-.4,1.1-.794,1.6-1.243,1.171-1.043,2.488-1.871,3.659-2.907a6.78,6.78,0,0,1,3.577-1.519c1.374-.235,2.735-.594,4.115-.766,1.133-.138,2.222-.6,3.368-.3,2.8.732,5.628,2.134,8.547,1.533,4.242-.891,23.089-6.415,23.089-6.415l4.546-18.644s3.165-16.71,7.983-21.634a12.813,12.813,0,0,1,7.667,8.2c1.216,4.585-.057,8.583-2.45,19.686-1.817,8.424-2.2,9.191-4.28,17.1C405.24,251.092,404.632,252.694,397.168,253.9Z" transform="translate(-344.815 -199.104)" fill="#ffa8a7"/>
          <path id="Path_187" data-name="Path 187" d="M435.031,198.85c3.647,1.837,7.641,4.3,8.6,10.71s-4.571,25.9-4.571,25.9a20.424,20.424,0,0,1-8.382-1.153c-4.957-1.63-6.071-4.095-6.071-4.095s1.684-8.459,2.646-12.429S430.188,203.69,435.031,198.85Z" transform="translate(-374.093 -198.85)" fill="#689bc8"/>
        </g>
        <path id="Path_188" data-name="Path 188" d="M309.981,285.076a2.675,2.675,0,0,1-2.475-.207l-42.227-26.557a3.146,3.146,0,0,1-1.4-2.2l-4.621-30.065a3.566,3.566,0,0,1-.038-.518,3.269,3.269,0,0,1,.848-2.223l43.879,27.62a2.329,2.329,0,0,1,1.032,1.623Z" transform="translate(-237.948 -160.309)" fill="#37474f"/>
        <path id="Path_189" data-name="Path 189" d="M311.156,284.46l-.291.18a4.318,4.318,0,0,1-.393.207l-5-32.544a2.329,2.329,0,0,0-1.032-1.623L260.56,223.06a2.96,2.96,0,0,1,.582-.49l43.974,27.689a2.336,2.336,0,0,1,1.032,1.623Z" transform="translate(-238.44 -160.08)" fill="#455a64"/>
        <path id="Path_190" data-name="Path 190" d="M330.86,263.978l.677-.428a2.407,2.407,0,0,1,.405,1l5.008,32.592-.291.18a4.334,4.334,0,0,1-.393.207l-5-32.544A2.437,2.437,0,0,0,330.86,263.978Z" transform="translate(-264.234 -172.763)" fill="#263238"/>
        <path id="Path_191" data-name="Path 191" d="M297.509,269.579a10.11,10.11,0,0,0-4.254-5.973c-2.039-1.284-3.45-.691-3.165,1.319a10.009,10.009,0,0,0,4.261,5.973C296.394,272.182,297.819,271.588,297.509,269.579Z" transform="translate(-249.261 -172.57)" fill="#689bc8"/>
      </g>
    </g>
    <g id="freepik--character-1--inject-169" transform="translate(41.875 64.618)">
      <g id="freepik--character--inject-169-2" data-name="freepik--character--inject-169">
        <path id="Path_192" data-name="Path 192" d="M58.52,240.878c0,5.4,1.944,28.718,24.728,26.191,24.817-2.762,28.989-24.264,27.856-34.353-5.065-24.955-7.356-38.517-7.356-38.517H67.687S59.546,219.749,58.52,240.878Z" transform="translate(-53.824 -114.583)" fill="#689bc8"/>
        <g id="freepik--bottom--inject-169-2" data-name="freepik--bottom--inject-169" transform="translate(3.41 83.428)">
          <g id="freepik--bottom--inject-169-3" data-name="freepik--bottom--inject-169">
            <path id="Path_193" data-name="Path 193" d="M116.84,392.011l2.418-1.236-2.38-.725Z" transform="translate(-78.632 -258.626)" fill="#263238"/>
            <path id="Path_194" data-name="Path 194" d="M137.893,394.613s-28.4-13.852-28.767-11.815a3.165,3.165,0,0,0,0,1.222.691.691,0,0,1-.076-.11l.5,3.8a8.205,8.205,0,0,0,4.432,2.009c0-.186,0-1.319.038-1.968a14.531,14.531,0,0,1,2.532,1.436c1.817,1.3,2.976,3.549,4.9,6.166,1.4,1.913,3.912,2.817,7.641,3.4,4.007.635,7.553-.159,8.553-1.291A3.232,3.232,0,0,0,137.893,394.613Z" transform="translate(-75.774 -256.318)" fill="#263238"/>
            <path id="Path_195" data-name="Path 195" d="M137.134,383.894a37.538,37.538,0,0,0-2.653-2.8,54.024,54.024,0,0,0-4.083-3.749,15.7,15.7,0,0,1-2.032-1.8c-.494-.573-.962-1.16-1.405-1.781a33.675,33.675,0,0,1-3.4-6.215,14.947,14.947,0,0,1-1.178-3.259,22.3,22.3,0,0,1-.317-3.611c0-5.462.12-6.325.165-10.482l-12.029.338c.386,2.3.962,5.455,1.159,8.072.291,3.977.386,4.833-1.1,8.825a11.986,11.986,0,0,0-1.152,3.535c-.108,2.037,1.393,3.8,3.07,4.834,1.386.836,2.994,1.2,4.343,2.072a14.572,14.572,0,0,1,3.52,3.729c.95,1.305,1.709,2.852,3.051,3.777a12.034,12.034,0,0,0,4.628,1.733,23.258,23.258,0,0,0,6.236.38C136.893,387.222,139.115,386.1,137.134,383.894Z" transform="translate(-75.793 -246.289)" fill="#ffbda7"/>
            <path id="Path_196" data-name="Path 196" d="M135.364,388.951c-1.222-1.1-2.95-2.686-5.065-4.468a5.082,5.082,0,0,0-4.432.394c-4.216,2.334-4.951,5.648-4.951,5.648a6.187,6.187,0,0,0,3.431,3.232c4.875,2.3,13.637,1.643,13.738-.746C138.143,391.52,136.846,390.291,135.364,388.951Zm-24.994-15.1s-.291.78-1.045,2.313a4.542,4.542,0,0,0,0,4.613,6.5,6.5,0,0,0,4.267,3.121C114.992,379.374,112.054,374.844,110.37,373.85Z" transform="translate(-75.644 -253.612)" fill="#37474f"/>
            <path id="Path_197" data-name="Path 197" d="M68.993,381.679c.8,1.381-.241,6.525-.057,10.2.165,3.335,1.013,9.149.038,12.429-1.152,3.9-3.488,8.438-7.838,4.778-2.7-2.272-4.242-5.2-4.615-10.005-.253-3.335,1.007-7.955,2.1-12.049,1.266-4.778,1.747-7.34,1.747-7.34Z" transform="translate(-56.488 -255.419)" fill="#263238"/>
            <path id="Path_198" data-name="Path 198" d="M60.462,346.93c-.31,7.782.544,13.244.6,18.229a36.784,36.784,0,0,1-.677,6.732c-.633,3.176-1.671,7.6-2.115,9.667-.633,2.879-1.083,4.7-.139,7.927a3.993,3.993,0,0,0,.31.725c1.317,2.665,4.66,4.675,5.736,4.35a1.81,1.81,0,0,0,1.9.691,1.4,1.4,0,0,0,.355-.09,2.343,2.343,0,0,0,.355-.159,3.813,3.813,0,0,0,1.779-2.451,7.011,7.011,0,0,0,.171-.691,26.149,26.149,0,0,0,.139-8.169c-.082-1.809,0-4.143.171-7.029s.81-12.091,1.766-16.476c.715-3.059,1.608-6.905,2.532-10.986Z" transform="translate(-56.891 -245.28)" fill="#ffbda7"/>
            <path id="Path_199" data-name="Path 199" d="M57.522,402.155c2.64-1.229,10.3-1.381,11.516,2.534,0,3.7.057,6.215-2.159,9.432-2.944,4.281-6.787-.255-8.262-3.142A15.586,15.586,0,0,1,57.522,402.155Z" transform="translate(-56.792 -262.133)" fill="#37474f"/>
            <path id="Path_200" data-name="Path 200" d="M70.79,199.72c-3.735,7.057-6.736,13-7.711,31.646-1.089,21.026-.931,29.043-1.026,31.584s-1.646,7.2-2.963,19.693.07,42.811.07,42.811.931,2.072,5.464,2.507a11.011,11.011,0,0,0,6.628-1.126s6.641-39.794,8.281-47.314,6.419-32.267,6.419-32.267l2.627,20.121s-1.323,6.905-.127,17.87S92,318.391,92,318.391a22.55,22.55,0,0,0,6.331,1.726,14.537,14.537,0,0,0,7.021-.856s3.514-44.7,3.6-57.133-.823-43.467-4.432-61.9Z" transform="translate(-57.235 -199.72)" fill="#455a64"/>
            <path id="Path_201" data-name="Path 201" d="M95.158,224.988l-3.9,23.885,2.634,20.1L92.873,248.6,96.342,229c2.849-.691,9.338-4.24,11.149-9.363C103.046,224.435,95.158,224.988,95.158,224.988Zm-13.181-14.1c.519-2,1.064-4,1.671-6.007a30.485,30.485,0,0,0-2.6,5.69,57.383,57.383,0,0,0-1.722,6.042q-.71,3.073-1.127,6.215a44.424,44.424,0,0,0-.437,6.291c.494-2.072.95-4.067,1.405-6.1s.9-4.053,1.374-6.07S81.477,212.9,81.977,210.887Zm-2.843-1.526c.633-1.222,1.3-2.451,1.9-3.736a22.316,22.316,0,0,0-2.722,3.169,31.533,31.533,0,0,0-2.216,3.577,27.923,27.923,0,0,0-1.69,3.894,17.557,17.557,0,0,0-.937,4.143L75.3,216.66c.633-1.229,1.266-2.458,1.9-3.667S78.5,210.584,79.135,209.361ZM76.216,289.2Q74.494,298.872,73,308.636q2.2-9.6,4.166-19.244c1.329-6.429,2.583-12.85,3.8-19.334s1.969-13.03,2.615-19.576,1.152-13.12,1.576-19.679c-.905,6.518-1.722,13.037-2.532,19.555s-1.7,13.016-2.881,19.452S77.349,282.721,76.216,289.2Zm32.452-32.454c.1,2.852.241,5.724.177,8.542s-.26,5.7-.418,8.555l-.468,8.576q-.475,8.576-.76,17.173,1.019-8.535,1.741-17.1c.481-5.717.937-11.407,1.159-17.173,0-5.8-.4-11.5-.848-17.221s-1.076-11.414-1.9-17.09l.9,17.159C108.409,251.013,108.56,253.865,108.668,256.751Z" transform="translate(-62.547 -201.317)" fill="#37474f"/>
          </g>
        </g>
        <g id="freepik--top--inject-169-2" data-name="freepik--top--inject-169">
          <path id="Path_202" data-name="Path 202" d="M102.565,104.048c.538-.732.785-1.643,1.266-2.362A5.461,5.461,0,0,0,105,99.159c.07-.518.051-1.043.127-1.554a2.14,2.14,0,0,1,.633-1.346c.519-.421,1.266-.352,1.817-.691a2.428,2.428,0,0,0,1.013-2.127,7.41,7.41,0,0,0-.576-2.431,1.652,1.652,0,0,0,1.791-.317,2.029,2.029,0,0,0,.59-1.871,1.047,1.047,0,0,1-1.9,0,2.139,2.139,0,0,1-.171-1,17.816,17.816,0,0,0,.089-2.9,5.3,5.3,0,0,0-1.329-2.6,10.88,10.88,0,0,0-9.56-3.335c-1.374.159-2.672.766-4.083.842a12.815,12.815,0,0,1-3.07-.345,12.341,12.341,0,0,0-4.552-.228,5.3,5.3,0,0,0-3.748,2.576c-.449.856-.633,1.913-1.374,2.513a3.975,3.975,0,0,1-1.766.69,9.579,9.579,0,0,0-4.432,2.223,6.134,6.134,0,0,0-2.007,4.834c.114,1.519.886,2.886,1.07,4.392.342,2.762-1.317,5.572-.633,8.245s3.495,4.026,4.925,6.36c.57.932.912,2.016,1.443,2.976a7.7,7.7,0,0,0,2.8,2.886,23.741,23.741,0,0,0,3.691,1.381c1.228.483,2.786,1.139,4.007.262a11.9,11.9,0,0,0,.994-.953,6.172,6.172,0,0,1,1.9-1.236,11.709,11.709,0,0,0,1.779-.691c1.393-.815,2.02-2.6,2.45-4.254s.842-3.453,2.045-4.578a25.084,25.084,0,0,1,2.26-1.512A5.825,5.825,0,0,0,102.565,104.048Z" transform="translate(-58.947 -78.898)" fill="#263238"/>
          <path id="Path_203" data-name="Path 203" d="M164.814,119.829a3.263,3.263,0,0,0-2.1.3,22.768,22.768,0,0,0-2.925,2.009c-1.5,1-3.906,2.645-5.7,2.665-.361,0-1.121-.117-.633-.635a16.386,16.386,0,0,0,1.785-2.072,3.688,3.688,0,0,0,.633-2.7,1.212,1.212,0,0,0-.4-.691c-.31-.228-.513-.062-.734.145a6.446,6.446,0,0,1-.779.573l-1.621,1.146c-3.165,2.258-6.274,4.834-8.015,8.611-.253.539-1.728,4.785-2.7,7.181-.779,2.189-6.173,15.882-6.173,15.882s-9.078-10.254-12.029-13.472c-3.216-3.494-6.331-5.22-11.4-4.979l4.254,18.333s12.383,12.174,14.251,13.493c2.76,1.947,8.034,5.524,11.168,1.782,3.837-4.6,4.906-12.077,6.128-17.539,1.38-6.152,1.747-9.087,2.615-10.972s2.444-2.072,3.526-2.541a16.85,16.85,0,0,0,4.267-2.327,16.216,16.216,0,0,0,3.222-2.9,5.283,5.283,0,0,0,1.216-1.768,18.3,18.3,0,0,1,.228-1.83c.234-.69.753-1.208.918-1.913a7.188,7.188,0,0,0,0-1.692,2.947,2.947,0,0,1,1.019-2.072,2.586,2.586,0,0,0,.677-.974A.811.811,0,0,0,164.814,119.829Z" transform="translate(-73.461 -91.186)" fill="#ffbda7"/>
          <path id="Path_204" data-name="Path 204" d="M154.68,151.384l1.792-4.834a11.41,11.41,0,0,0,3.634,5.9c2.817,2.189,4.432,2.134,4.432,2.134l-1.38,6.215a12.625,12.625,0,0,1-5.223-2.4C155.807,156.528,154.68,151.384,154.68,151.384Z" transform="translate(-89.106 -99.836)" fill="#fafafa"/>
          <path id="Path_205" data-name="Path 205" d="M147.946,166.819a15.266,15.266,0,0,0-.5,8.8c-2.209-4.834-1.133-8.176-.405-9.826Z" transform="translate(-85.968 -105.79)" fill="#f0997a"/>
          <path id="Path_206" data-name="Path 206" d="M117.73,140.59c4.824.9,5.812,2.513,8.762,5.669s11.035,12.174,11.035,12.174l4.14-10.62a9.748,9.748,0,0,0,3.165,6.38c3.165,3.1,5.52,3.045,5.52,3.045a79.161,79.161,0,0,1-3.988,13.713c-2.406,5.49-4.925,6.215-9.243,4.6s-15.08-11.987-15.08-11.987Z" transform="translate(-75.549 -97.991)" fill="#689bc8"/>
          <path id="Path_207" data-name="Path 207" d="M117.73,140.59c4.824.9,5.812,2.513,8.762,5.669s11.035,12.174,11.035,12.174l4.14-10.62a9.748,9.748,0,0,0,3.165,6.38c3.165,3.1,5.52,3.045,5.52,3.045a79.161,79.161,0,0,1-3.988,13.713c-2.406,5.49-4.925,6.215-9.243,4.6s-15.08-11.987-15.08-11.987Z" transform="translate(-75.549 -97.991)" opacity="0.15"/>
          <path id="Path_208" data-name="Path 208" d="M173.233,130.21a12.712,12.712,0,0,1-3.723,5.7,4.711,4.711,0,0,0,2.881-1.823,5.261,5.261,0,0,0,.842-3.874Z" transform="translate(-94.547 -94.779)" fill="#f0997a"/>
          <path id="freepik--chest--inject-169-2" data-name="freepik--chest--inject-169" d="M69.251,190.663c-3.577-1.837.342-4.412,1.121-16.358a89.646,89.646,0,0,0-.747-10.717s6.217-7.83,4.571-22.69l12.2-1.768,7.945.062,5.065,1.637a42.044,42.044,0,0,1,7.344,8.348c3.6,5.793,4.14,12.1.26,16.7-.057.911.487,14.887,1.532,18.3.969,3.176,1.178,3.529-.386,4.944C103.222,193.045,75.588,193.321,69.251,190.663Z" transform="translate(-57.217 -97.539)" fill="#fafafa"/>
          <path id="Path_209" data-name="Path 209" d="M109.74,139.22l5.065.946c4.792,4.143,10.452,11.511,10.667,17.1a31.954,31.954,0,0,1-.893,9.343s-.544,11.566.525,17.58c.886,4.944,1.741,9.9,2.6,14.853.424,2.417,2.406,13.845,2.19,17.263a32.591,32.591,0,0,1-7.28-12.609c-2.241-6.829-2.767-14.176-3.3-21.351-.418-5.586-1.051-11.345-.8-16.959C118.818,158.651,119.141,147.969,109.74,139.22Z" transform="translate(-72.617 -97.567)" fill="#689bc8"/>
          <path id="Path_210" data-name="Path 210" d="M77.458,140.089c.791-.117,3.336,6.684,3.615,7.264,2.07,4.309,2.71,9.612,3.165,14.445a108.273,108.273,0,0,1-1.9,31.853,58.191,58.191,0,0,1-2.488,9.336c-3.52,9.336-12.541,18.25-21.411,21.143,0-7.6,1.184-15.274,2.146-22.1.7-5.006,1.405-10.012,2.361-14.97a161.847,161.847,0,0,0,3.368-27.758q.19-8.8.355-17.6Z" transform="translate(-53.794 -97.836)" fill="#689bc8"/>
          <g id="freepik--arm--inject-169-3" data-name="freepik--arm--inject-169" transform="translate(0 43.455)">
            <path id="Path_211" data-name="Path 211" d="M111,166.772c2.285-1.857,3.438-2.576,4.508-2.907s4.805-2.03,6.242-2.417c.905-.249,1.266,1.333.12,2.417a31.257,31.257,0,0,1-4.235,2.541,18.923,18.923,0,0,0-3.013,3.252Z" transform="translate(-73.079 -147.894)" fill="#f0997a"/>
            <path id="Path_212" data-name="Path 212" d="M56.988,148.7c2.266-5.275,4.2-5.78,9.686-6.477,5.166,5.49.969,17.8.969,17.8l-2.494,12.906s13.409-2.12,14.953-3.2,5.7-5.945,7.091-7.409c1.9-1.982,2.836-1.712,3.8-1.561,3.165.518,3.843.808,4.514,1.271a1.614,1.614,0,0,1,.633,1.34c.836.117,2.089.09,2.247,1.588a4.512,4.512,0,0,1,.051,1.2.9.9,0,0,1,.544.338c.7.884-.494,3.929-1.266,4.675a2.557,2.557,0,0,1-2.292.442c-.848-.124-.456-1.07-.456-1.07l-1.19.076c-2.564,1.989-2.691,5.931-6.084,6.795a21.988,21.988,0,0,0-4.14.877c-7.306,2.679-19.277,10.786-25.786,11.4-6.331.594-6.166-3.1-6.268-7.34C51.417,178.548,54.722,153.952,56.988,148.7Z" transform="translate(-51.247 -141.951)" fill="#ffbda7"/>
            <path id="Path_213" data-name="Path 213" d="M85.973,183.948l4.824-1.1s-.981,1.1-.69,4.668,2.165,5.013,2.165,5.013l-7,3.715Z" transform="translate(-63.639 -154.525)" fill="#fafafa"/>
            <path id="Path_214" data-name="Path 214" d="M69.306,184.56l-.272,1.45c-2.893.815-6.287,4.979-6.964,6.7A9.969,9.969,0,0,1,69.306,184.56Z" transform="translate(-55.126 -155.055)" fill="#f0997a"/>
            <path id="Path_215" data-name="Path 215" d="M66.738,141.83s-.918.1-2.71.4a7.883,7.883,0,0,0-6.331,3.991c-1.956,3.3-2.089,4.764-3.216,10.475s-3.07,18.968-3.317,23.919.247,7.237,1.38,8.286,3.8,1.809,7.7.47,15.485-6.449,15.485-6.449-1.494.1-1.969-4.716.519-7.209.519-7.209l-9,1.526,2.849-13.313S71.929,146.09,66.738,141.83Z" transform="translate(-51.102 -141.83)" fill="#689bc8"/>
            <path id="Path_216" data-name="Path 216" d="M66.738,141.83s-.918.1-2.71.4a7.883,7.883,0,0,0-6.331,3.991c-1.956,3.3-2.089,4.764-3.216,10.475s-3.07,18.968-3.317,23.919.247,7.237,1.38,8.286,3.8,1.809,7.7.47,15.485-6.449,15.485-6.449-1.494.1-1.969-4.716.519-7.209.519-7.209l-9,1.526,2.849-13.313S71.929,146.09,66.738,141.83Z" transform="translate(-51.102 -141.83)" opacity="0.15"/>
            <path id="Path_217" data-name="Path 217" d="M69.38,185.5a10.191,10.191,0,0,0-7.11,6.346,9.341,9.341,0,0,1,7.483-8.093Z" transform="translate(-55.2 -154.804)" opacity="0.15"/>
            <path id="Path_218" data-name="Path 218" d="M119.828,172.452l-3.748-.822,3.666.255a1.78,1.78,0,0,1,.082.566Z" transform="translate(-74.943 -151.053)" fill="#f0997a"/>
            <path id="Path_219" data-name="Path 219" d="M123.131,176.588l-4.311-.608,4.318.062A2.636,2.636,0,0,1,123.131,176.588Z" transform="translate(-75.949 -152.399)" fill="#f0997a"/>
            <path id="Path_220" data-name="Path 220" d="M121.74,180.3a4.034,4.034,0,0,1-.576.18,12.857,12.857,0,0,1-1.5.11,1.846,1.846,0,0,1-.538.9,8.611,8.611,0,0,1-.836.76l1.19-.076a1.834,1.834,0,0,1,1.222-.766.824.824,0,0,1,.576.117,1.475,1.475,0,0,1,.443.518,1.218,1.218,0,0,0-.38-.615.817.817,0,0,0-.443-.193l.247-.573a2.747,2.747,0,0,0,.633-.249,1.457,1.457,0,0,0,.582-.552,1.619,1.619,0,0,1-.62.435Z" transform="translate(-75.754 -153.6)" fill="#f0997a"/>
          </g>
          <g id="freepik--head--inject-169-2" data-name="freepik--head--inject-169" transform="translate(16.985 10.043)">
            <g id="freepik--head--inject-169-3" data-name="freepik--head--inject-169">
              <g id="freepik--head--inject-169-4" data-name="freepik--head--inject-169">
                <path id="Path_221" data-name="Path 221" d="M83.533,115.233a4.051,4.051,0,0,1-3.8-1.581c-2.007-2.4-2.2-4.834-1.266-6.491.766-1.34,2.659-2.2,3.988-1.291,1.424.967,1.469,1.761,2.007,2.859s1.9.235,1.443-4.143c2.76-1.416,2.317-6.456,3.8-8.507a5.812,5.812,0,0,1,7.42-1.637,4.66,4.66,0,0,1,5.229-.366c1.722,1,3.039,2.555,3.685,9.025.051.5-.291,1.381-.133,1.927,2.026,6.905-.393,13.527-2.083,15.191a7.745,7.745,0,0,1-5.894,1.8v3.011s7.432,8.452-2.045,7.685a14.637,14.637,0,0,1-10.762-6.629l-.063-12.1S84.939,114.922,83.533,115.233Z" transform="translate(-77.931 -93.442)" fill="#ffbda7"/>
                <path id="Path_222" data-name="Path 222" d="M109.839,122.768a2.123,2.123,0,0,1-2.474,1.755,2.3,2.3,0,0,1-1.672-2.652Z" transform="translate(-88.106 -102.24)" fill="#b16668"/>
                <path id="Path_223" data-name="Path 223" d="M105.69,122.989a2.228,2.228,0,0,0,1.678,1.954,1.82,1.82,0,0,0,.747,0,2.175,2.175,0,0,0-2.425-1.954Z" transform="translate(-88.116 -102.579)" fill="#f28f8f"/>
                <path id="Path_224" data-name="Path 224" d="M104.438,110.722a1.187,1.187,0,0,1-1.527.812,1.349,1.349,0,0,1-.765-1.654,1.193,1.193,0,0,1,1.506-.856A1.413,1.413,0,0,1,104.438,110.722Z" transform="translate(-86.794 -98.246)" fill="#263238"/>
                <path id="Path_225" data-name="Path 225" d="M118.532,103.07,116,101.614a1.44,1.44,0,0,1,.815-.784,1.289,1.289,0,0,1,1.084.094A1.735,1.735,0,0,1,118.532,103.07Z" transform="translate(-91.899 -95.704)" fill="#263238"/>
                <path id="Path_226" data-name="Path 226" d="M116.482,110.294a1.177,1.177,0,0,0,1.564.725,1.36,1.36,0,0,0,.685-1.7,1.182,1.182,0,0,0-1.546-.769,1.388,1.388,0,0,0-.7,1.74Z" transform="translate(-92.045 -98.094)" fill="#263238"/>
                <path id="Path_227" data-name="Path 227" d="M100.51,102.182l-2.716,1.609a1.75,1.75,0,0,1-.166-1.268,1.606,1.606,0,0,1,.729-1,1.556,1.556,0,0,1,2.152.663Z" transform="translate(-85.139 -95.879)" fill="#263238"/>
                <path id="Path_228" data-name="Path 228" d="M113.645,105.12l-.538-.041a14.888,14.888,0,0,0-5.369.449c-1.684.635-2.247,1.284-3.2,1.333s-1.7-.539-3.564-1a16.935,16.935,0,0,0-5.761.1l-.57.1a.956.956,0,0,0-.582,1.043,2.4,2.4,0,0,0,.633,1.146,1.482,1.482,0,0,1,.215.463,21.663,21.663,0,0,0,.886,3.211,4.005,4.005,0,0,0,.8,1.126,3.21,3.21,0,0,0,.4.331,1.9,1.9,0,0,0,.228.138,3.228,3.228,0,0,0,.665.3l.108.035.177.041.177.041a4.948,4.948,0,0,0,.576.062h.551a3.906,3.906,0,0,0,3.8-2.6c.519-1.222.253-2.99,1.342-3.038h.2c.817.159.817,1.761,1.393,2.879a4.814,4.814,0,0,0,.848,1.215,2.606,2.606,0,0,0,.2.186l.1.083.108.083.1.076.108.069.082.048h.057a3.585,3.585,0,0,0,.969.352h.089a4.7,4.7,0,0,0,1.152.069,3.2,3.2,0,0,0,3.165-2.417,21,21,0,0,0,.475-3.273,1.062,1.062,0,0,1,.177-.435,2.28,2.28,0,0,0,.424-1.222,1.018,1.018,0,0,0-.627-.939ZM102.6,110.264a3.688,3.688,0,0,1-.715,1.747h0a3.178,3.178,0,0,1-2.532,1.1,2.871,2.871,0,0,1-2.532-1.126l-.089-.117-.076-.117a1.14,1.14,0,0,1-.07-.117l-.057-.1a.531.531,0,0,1-.044-.083l-.038-.069-.057-.124h0c-.057-.124-.1-.242-.146-.352h0a.662.662,0,0,0-.076-.214c-.025-.069-.076-.242-.1-.345v-.131c-.234-.849-.551-2.527-.171-2.921a4.293,4.293,0,0,1,3.165-.753h.19a6.369,6.369,0,0,1,.81.11,1.614,1.614,0,0,1,.317.062,6.3,6.3,0,0,1,.8.235l.241.09.272.117h.051l.1.055a1.673,1.673,0,0,1,.551.421,4.382,4.382,0,0,1,.19,2.631Zm10.224-.87a3.653,3.653,0,0,1-1.488,2.831,2.893,2.893,0,0,1-1.266.373,2.862,2.862,0,0,1-2.7-1.16h0l-.051-.076a.7.7,0,0,1-.057-.09v-.048l-.076-.131-.082-.152-.032-.076v-.159a4.753,4.753,0,0,1-.209-.635,4.348,4.348,0,0,1-.1-2.6,4.591,4.591,0,0,1,2.8-1.381,7.249,7.249,0,0,1,.8-.1h.931l.412.055h.38l.2.069h.038a1.66,1.66,0,0,1,.449.269,7.58,7.58,0,0,1,.044,3.011Z" transform="translate(-83.847 -97.028)" fill="#37474f"/>
                <path id="Path_229" data-name="Path 229" d="M114.358,115.471l-4.292,1.961-.905-5.959c.146-.842.279-1.574.937-1.643Z" transform="translate(-89.389 -98.514)" fill="#f0997a"/>
                <path id="Path_230" data-name="Path 230" d="M121.907,110.9a1.271,1.271,0,0,0-.082-.331h-.266a1.684,1.684,0,0,0-.374,0c-.07,0-.089.1-.07.159a.179.179,0,0,0,.139.152l.342.055.158.035h.07A.193.193,0,0,0,121.907,110.9Z" transform="translate(-93.774 -98.738)" fill="#f0997a"/>
                <path id="Path_231" data-name="Path 231" d="M120.986,109.424a1.911,1.911,0,0,0,.279,0l.209-.048h.12a4.617,4.617,0,0,1,.057-.5.192.192,0,0,0-.063,0H121.5l-.177.048c-.152.048-.31.083-.462.145S120.828,109.431,120.986,109.424Z" transform="translate(-93.656 -98.219)" fill="#f0997a"/>
                <path id="Path_232" data-name="Path 232" d="M99.2,109.868a.581.581,0,0,0,.158,0h.076l.171.035a3.011,3.011,0,0,1,.348.124.2.2,0,0,0,.215,0,.168.168,0,0,0,.038-.138v-.048a.362.362,0,0,0-.057-.11.814.814,0,0,0-.253-.207h-.152l-.165-.055a1.835,1.835,0,0,0-.279-.062.75.75,0,0,0-.247,0,.191.191,0,0,0-.1.1.232.232,0,0,0,0,.159A.321.321,0,0,0,99.2,109.868Z" transform="translate(-85.639 -98.379)" fill="#f0997a"/>
                <path id="Path_233" data-name="Path 233" d="M100.42,111.488a.169.169,0,0,0,.038-.186.275.275,0,0,0-.146-.173.689.689,0,0,0-.108-.041h-.082a1.475,1.475,0,0,0-.247,0h-.234a.423.423,0,0,0-.171.076l-.038.048v.062a.232.232,0,0,0,0,.159.378.378,0,0,0,.082.117.169.169,0,0,0,.063.041.179.179,0,0,0,.1.035h.361l.209-.041h.044a.272.272,0,0,0,.095-.055h0Z" transform="translate(-85.815 -98.902)" fill="#f0997a"/>
                <path id="Path_234" data-name="Path 234" d="M104.423,120.825h0l-.082.048a.724.724,0,0,0-.133.117l-.19.214a3.066,3.066,0,0,0-.317.5,1.866,1.866,0,0,0-.215.608,2.853,2.853,0,0,1-.057.3,1.123,1.123,0,0,0,0,.145.6.6,0,0,0,.038.214c0,.1.19.221.266.11a.446.446,0,0,0,.076-.145l.038-.124a.72.72,0,0,1,.095-.269c.038-.083.139-.318.215-.476a3.069,3.069,0,0,1,.253-.428,3.21,3.21,0,0,0,.317-.476C104.745,121.018,104.556,120.756,104.423,120.825Z" transform="translate(-87.286 -101.913)" fill="#f0997a"/>
                <path id="Path_235" data-name="Path 235" d="M91.255,106.73l-6.185,3.232a6.6,6.6,0,0,1,.956.836l5.388-2.665Z" transform="translate(-80.55 -97.555)" fill="#37474f"/>
              </g>
            </g>
            <path id="Path_236" data-name="Path 236" d="M103.719,132.911c-3.7-.152-8.673-1.588-10.009-4.191.741,2.81,3.355,4.267,5.438,4.9a20.135,20.135,0,0,0,4.546.856Z" transform="translate(-83.72 -104.36)" fill="#f0997a"/>
          </g>
        </g>
      </g>
    </g>
    <g id="freepik--speech-bubble--inject-169" transform="translate(95.787 41.535)">
      <g id="freepik--speech-bubble--inject-169-2" data-name="freepik--speech-bubble--inject-169" transform="translate(0 0)">
        <path id="Path_237" data-name="Path 237" d="M136.69,66.306c0-11.29,11.712-20.446,26.165-20.446s26.159,9.156,26.159,20.446S177.3,86.752,162.855,86.752a21.226,21.226,0,0,1-2.577-.1c-2.862,5.856-7.717,6.864-11.5,6.4a7.886,7.886,0,0,0,4.039-7.858C143.35,82.112,136.69,74.82,136.69,66.306Z" transform="translate(-136.418 -45.591)" fill="#fff"/>
        <path id="Path_238" data-name="Path 238" d="M148.593,93.219a.29.29,0,0,1-.241-.249.31.31,0,0,1,.158-.318,7.568,7.568,0,0,0,3.893-7.361c-9.813-3.252-16.144-10.73-16.144-19.106,0-11.435,11.858-20.715,26.438-20.715s26.431,9.308,26.431,20.715S177.271,86.9,162.7,86.9c-.791,0-1.608-.035-2.425-.09a10.828,10.828,0,0,1-10.06,6.484,12.736,12.736,0,0,1-1.621-.076Zm11.56-6.988c.861.069,1.722.1,2.532.1,14.276,0,25.887-9.032,25.887-20.142s-11.6-20.142-25.887-20.142-25.893,9.032-25.893,20.142c0,8.155,6.255,15.454,15.935,18.6a.3.3,0,0,1,.2.262,8.4,8.4,0,0,1-3.368,7.665c2.994.152,7.559-.691,10.313-6.318a.27.27,0,0,1,.241-.159Z" transform="translate(-136.26 -45.47)" fill="#689bc8"/>
        <path id="Path_239" data-name="Path 239" d="M191.84,75.01a2.669,2.669,0,1,0,2.659-2.9,2.787,2.787,0,0,0-2.659,2.9Z" transform="translate(-156.653 -53.715)" fill="#689bc8"/>
        <path id="Path_240" data-name="Path 240" d="M173.81,75.01a2.675,2.675,0,1,0,2.665-2.9,2.551,2.551,0,0,0-1.884.847A3.039,3.039,0,0,0,173.81,75.01Z" transform="translate(-150.038 -53.715)" fill="#689bc8"/>
        <path id="Path_241" data-name="Path 241" d="M155.79,75.01a2.922,2.922,0,0,0,1.642,2.691,2.506,2.506,0,0,0,2.908-.629,3.1,3.1,0,0,0,.577-3.171,2.673,2.673,0,0,0-2.468-1.791A2.787,2.787,0,0,0,155.79,75.01Z" transform="translate(-143.426 -53.715)" fill="#689bc8"/>
        <g id="Group_125" data-name="Group 125" transform="translate(12.364 18.395)" opacity="0.3">
          <path id="Path_242" data-name="Path 242" d="M191.84,75.01a2.669,2.669,0,1,0,2.659-2.9,2.787,2.787,0,0,0-2.659,2.9Z" transform="translate(-169.017 -72.11)" fill="#fff"/>
          <path id="Path_243" data-name="Path 243" d="M173.81,75.01a2.675,2.675,0,1,0,2.665-2.9,2.551,2.551,0,0,0-1.884.847A3.039,3.039,0,0,0,173.81,75.01Z" transform="translate(-162.402 -72.11)" fill="#fff"/>
          <path id="Path_244" data-name="Path 244" d="M155.79,75.01a2.922,2.922,0,0,0,1.642,2.691,2.506,2.506,0,0,0,2.908-.629,3.1,3.1,0,0,0,.577-3.171,2.673,2.673,0,0,0-2.468-1.791A2.787,2.787,0,0,0,155.79,75.01Z" transform="translate(-155.79 -72.11)" fill="#fff"/>
        </g>
      </g>
    </g>
  </g>
</svg>
