<svg xmlns="http://www.w3.org/2000/svg" xmlns:xlink="http://www.w3.org/1999/xlink" width="57" height="56" viewBox="0 0 57 56">
  <defs>
    <linearGradient id="linear-gradient" x1="0.5" x2="0.545" y2="1.361" gradientUnits="objectBoundingBox">
      <stop offset="0" stop-color="#fff"/>
      <stop offset="1" stop-color="#d6d6d6"/>
      <stop offset="1" stop-color="#e8e8e8"/>
      <stop offset="1" stop-color="gray"/>
    </linearGradient>
  </defs>
  <g id="Group_284" data-name="Group 284" transform="translate(-17 -784)">
    <ellipse id="Ellipse_96" data-name="Ellipse 96" cx="28.5" cy="28" rx="28.5" ry="28" transform="translate(17 784)" fill="url(#linear-gradient)"/>
    <path id="camera-change" d="M14.647,5.89,16.46,7.706a1.2,1.2,0,0,0,1.874-1.466h4.424a1.211,1.211,0,0,0,0-2.423H18.333A1.2,1.2,0,0,0,16.46,2.353L14.647,4.169a1.254,1.254,0,0,0,0,1.72ZM27.5,10.626a1.212,1.212,0,0,0-.254-.4L25.428,8.409a1.2,1.2,0,0,0-1.874,1.466H19.131a1.211,1.211,0,0,0,0,2.423h4.424a1.2,1.2,0,0,0,1.874,1.466l1.813-1.817a1.254,1.254,0,0,0,.254-1.32ZM13.087,11.692a4.845,4.845,0,1,0,4.835,4.845A4.84,4.84,0,0,0,13.087,11.692Zm0,7.268A2.423,2.423,0,1,1,15.5,16.537,2.42,2.42,0,0,1,13.087,18.96Zm10.879-3.634a1.21,1.21,0,0,0-1.209,1.211v6.057A1.21,1.21,0,0,1,21.548,23.8H4.626a1.21,1.21,0,0,1-1.209-1.211V12.9a1.21,1.21,0,0,1,1.209-1.211H7.044a1.209,1.209,0,0,0,1.209-.836l.653-1.962a1.209,1.209,0,0,1,1.088-.836h1.886a1.211,1.211,0,0,0,0-2.423H9.993a3.627,3.627,0,0,0-3.445,2.5L6.173,9.269H4.626A3.63,3.63,0,0,0,1,12.9v9.69a3.63,3.63,0,0,0,3.626,3.634H21.548a3.63,3.63,0,0,0,3.626-3.634V16.537A1.21,1.21,0,0,0,23.966,15.326Z" transform="translate(31.207 796.988)"/>
  </g>
</svg>
