<svg xmlns="http://www.w3.org/2000/svg" width="27.177" height="39.083" viewBox="0 0 27.177 39.083">
  <path id="test" d="M28.407,5.56,25.022,1.909A5.86,5.86,0,0,0,20.753,0H7.529A4.718,4.718,0,0,0,3,4.885v34.2H30.177V10.165a6.823,6.823,0,0,0-1.77-4.605Zm-2.135,2.3a3.4,3.4,0,0,1,.213.28H22.628V3.982a3.254,3.254,0,0,1,.26.23ZM6.02,35.826V4.885a1.573,1.573,0,0,1,1.51-1.628H19.608V11.4h7.549V35.826Zm13.588-8.142h4.529v3.257H19.608Zm1.51-3.257v-2.78a12.1,12.1,0,0,0-.938-4.695l-.788-1.878a2.942,2.942,0,0,0-5.586-.065l-.814,1.944a12.087,12.087,0,0,0-.933,4.693v2.78h3.02V22.8H18.1v1.628Zm-4.5-8.076.814,1.941a8.514,8.514,0,0,1,.38,1.249H15.367a8.428,8.428,0,0,1,.38-1.247Zm-.722,9.771,2.144,2.293-2.817,3.068a3.232,3.232,0,0,1-4.809,0L9.094,30.032l2.156-2.28,1.308,1.44a.357.357,0,0,0,.524-.011Z" transform="translate(-3)" fill="#5492fe"/>
</svg>
